<svg id="Capa_1" data-name="Capa 1" xmlns="http://www.w3.org/2000/svg" viewBox="0 0 355.15 594.54"><defs><style>.cls-1{fill:#2f62ac;}</style></defs><path id="Trazado_3" data-name="Trazado 3" class="cls-1" d="M544.68,355.76c-13.56-37.17-34.91-48.49-55.22-72.33-24.8-29.12-41.53-50.29-35.09-87.75,10.52-61.2,15-213.85-149.76-193.9C245.55,8.94,198.88,53.44,164.92,97.87,136,135.67,84.06,139,42.23,147.82-9.17,158.65-61.52,175-109.08,199-207,248.33-236.27,319.29-232.27,410.08c1.2,27.43,5.15,70.63,52.27,121.19,63.6,68.23,156,77.37,267.25,46,25.46-7.17,49.53-18.42,74.58-26.89a357.32,357.32,0,0,1,80.48-17.19c63.89-6.07,130.11,4.92,191.4-13.84a202.45,202.45,0,0,0,85.6-52.2C548.58,437,559,395,544.68,355.76Z"/></svg>