<svg id="eldeadevis" xmlns="http://www.w3.org/2000/svg" viewBox="0 0 335.12 349.8"><defs><style>.cls-1{fill:#4480c2;stroke:#4480c2;}.cls-1,.cls-11,.cls-12,.cls-2{stroke-miterlimit:10;}.cls-2{fill:#6cf;stroke:#6cf;}.cls-3{fill:#ff9300;}.cls-4{fill:#ff7d00;}.cls-5{fill:#000048;}.cls-6{fill:#009a1a;}.cls-7{fill:#008d1a;}.cls-8{fill:#f7ffd0;}.cls-9{fill:#f7ffba;}.cls-10{fill:#008a1a;}.cls-11{fill:none;stroke:#e5b631;}.cls-12{stroke:#000;opacity:0.33;}</style></defs><g id="fondo"><rect class="cls-1" width="335.12" height="349.8"/><path class="cls-2" d="M252,37.63C199.68,91,236.33,163,190.78,199.34c-44.51,35.49-107.37-11-157.58,31.22-21.35,18-29.59,42.87-33.2,58.25v61H335.12V0C312.07,3,277.84,11.27,252,37.63Z"/></g><path class="cls-3" d="M153.62,77.57c-1.79.74-2.6,2.71-3,3.84-1.37,3.6-.4,6.93-.05,8.92,1.84,10.37-1.74,22.49-3.15,26.36a15.47,15.47,0,0,0-1.08,2.64,15.75,15.75,0,0,0-.51,4.19c.16,6.36,5.53,13.56,6.12,14.33a36.89,36.89,0,0,0,3.23,3.74,15.41,15.41,0,0,1,1,3.28,20.1,20.1,0,0,1,.41,3.61c0,4.35,0,6.52.07,6.6,1.73,5.19,12.31,6.41,18.63,6.09,4-.21,12.12-.64,14.07-5.08.91-2.07,0-3.91.68-11.54a16.88,16.88,0,0,1,.5-3,20.09,20.09,0,0,1,2.46-5.45c2.63-4.56,4.18-9.46,4.38-12.65a23.92,23.92,0,0,0,0-3.43,33.51,33.51,0,0,1-.11-8.93c1.05-7.61,4.51-9.91,4.77-18,.06-1.87,0-6.27-1.78-6.91-.6-.21-1.74.27-4,1.19-1.46.59-1.86.89-3.2,1.38a32.4,32.4,0,0,1-3.54,1,41.14,41.14,0,0,1-10.29,1.28c-4.84-.06-7.26,0-9.46-1.42-2.45-1.58-1.92-2.94-4.79-6.21C164.56,83,158,75.74,153.62,77.57Z"/><path class="cls-4" d="M191,139.92a29,29,0,0,1-3.31,4.91c-2.48,3-5.36,6.49-9.85,7.67a15,15,0,0,1-8.87-.67c-8.24-2.73-13.59-10.43-13.78-10.24,0,0,0,0,.11.26a10.56,10.56,0,0,1,.5,1.28c.13.33,4,9.25,13.4,11.67a16.37,16.37,0,0,0,10.07-.18C187.76,151.35,191.1,140,191,139.92Z"/><path class="cls-5" d="M164.34,67.27c-6,1.94-9.6,5.52-12.12,8C151.06,76.46,140,87.84,140.43,104c.29,11.3,5.94,23.29,6,23.28a12.54,12.54,0,0,1-.33-1.33,8.77,8.77,0,0,1-.13-2.88,18,18,0,0,1,1.55-4s1.42-4.27,3.48-9.53a53.17,53.17,0,0,0,2.15-6,35.7,35.7,0,0,0,1.19-9.33c0-7.3-2.4-10.53-.18-13.34.21-.27,1.16-1.48,2.32-1.39,1.86.15,3,3.37,3.38,4.35,3.68,9.06,23.24,17.9,33.88,12.7,1.81-.89,3.5-2.27,4.37-1.6,1.49,1.13-1.88,6.25-2,14.74-.05,2.68-.23,6,.18,7.7.49,2,1.22,3.16,1.15,5.37a19.83,19.83,0,0,1-.31,2.71c-.28,1.56-.62,2.4-.58,2.41A66.2,66.2,0,0,0,204,103c.35-4.64.8-12.22-3.5-20.09a31.94,31.94,0,0,0-8.13-9.44C190.69,72.16,178.33,62.74,164.34,67.27Z"/><path class="cls-6" d="M265.94,331.93c-1.88-4.82-4.13-9.07-2.43-13.39.69-1.74,1.89-3.16,2.84-6.45a24.48,24.48,0,0,0,.93-6.19c.52-14.79-4.77-28.27-4.77-28.27-3.43-8.85-6-19-11.15-39.4-7.17-28.37-9.28-56.56-19.8-61.59a55.77,55.77,0,0,0-7.9-3.36c-3.72-1-7.56-1.2-11.9-4-.23-.15-.37-.23-.56-.37-3.14-2.45-2-5.28-5.75-8.29-.93-.74-2.72-1.44-6.27-2.82-8.48-3.3-9.36-2.68-9.63-2.35s-.07,1.8.42,4.64c.22,1.29.48,1.41.46,1.73-.15,3.91-25.88,9.63-30.41,2-1.69-2.88.26-6.5-1.93-7.87-1.61-1-4,.12-7.82,1.81-2.94,1.31-4.88,2.18-6.6,4.08-3,3.34-1.46,5.56-3.9,9.15-1.28,1.9-4.53,3.54-11,6.73-5.85,2.9-8.62,4.67-10.2,6.21-4.29,4.17-5.36,9.55-6.08,13.38-2.83,15.12-4.24,22.68-4.9,32-.94,13.1-3.11,22.36-6.26,35.86C97.93,279.74,87.54,318.15,92,323.8c1.19,1.49,2.49,2.79,2.49,2.79,3.14,3.16,4.33,3.08,5.41,4.48,2.21,2.87-.37,6.36-1.25,14.87-.18,1.68-.32,3.09-.4,4.31l172.85-.07C271.13,345.21,268.22,337.75,265.94,331.93Z"/><path class="cls-7" d="M177.81,176.08c5.41,0,14.29-.34,15.69-4.33,1.29-3.69-4.1-9.12-3.07-9.95.26-.2.76,0,1.75.5,2.07,1,3.26,2.41,5.18,3.27a2.6,2.6,0,0,0,1,.27,4,4,0,0,0,1.89-.54,10.08,10.08,0,0,0-2.32,2.18c-.5.71-.48,1-.41,1.09s.39.29,1.57.09a12.82,12.82,0,0,0,3.24-1,17.18,17.18,0,0,0-2,.81,7.41,7.41,0,0,0-2.67,1.83,5.44,5.44,0,0,0-.54.76,20.45,20.45,0,0,1-3.17,3.52,28.68,28.68,0,0,1-14.89,6.22s-11.8,1.45-22.22-5.27a62.63,62.63,0,0,1-7.89-6.08,15,15,0,0,0-1.65-1.5,25,25,0,0,0-2.56-1.69c.05-.12,6.45,3.37,7,2.62.2-.29-.57-1.19-1.14-1.85a19.77,19.77,0,0,0-2.5-2.24,7.86,7.86,0,0,0,2.07,1.19c.32.11,2.28.81,3.31-.06.28-.24.26-.39.7-.78a3.64,3.64,0,0,1,1.4-.84c1.3-.3,2.77,5.23,5.37,8.18C164.35,176.33,170.05,176.09,177.81,176.08Z"/><path class="cls-8" d="M156.62,155.08v-.16s-.27,0-.42.16a1.85,1.85,0,0,0-.62,1,5.64,5.64,0,0,0-.25,1.55c.06,1.76-.08,5-.1,5.46-.15,3.33-3,3.94-3.18,6.17-.28,4,8.42,7.94,13.58,9.58,3.36,1.07,12.57,4,21.32,0a22.78,22.78,0,0,0,7.69-5.85c1.82-2.07,2.94-3.35,2.78-5-.29-2.87-4.21-3-5.94-7-.35-.81-.69-4.72-1.33-5.72-.07-.11-.37-.53-.46-.49s0,.11-.06.32a2,2,0,0,1-.07.31,6.07,6.07,0,0,1-.74,1.22c-.95,1.33-3.63,2.2-3.63,2.2a55.68,55.68,0,0,1-6.85,2c-4.15.5-7.3-.32-10.79-1.26A46.46,46.46,0,0,1,156.62,155.08Z"/><path class="cls-9" d="M156.58,165.14c.13-.11,1.09.72,1.28.88a29.45,29.45,0,0,0,12.39,5.3c2.58.43,7.09,1.18,11.84-.94a20.93,20.93,0,0,0,8.14-6.52c.17-.26,1-1.51,1.1-1.44s-.36,1.2-.52,1.58a21.67,21.67,0,0,1-7,9.09c-7.5,4.94-17.19.49-18.78-.29a24.4,24.4,0,0,1-7.59-6.27C157.21,166.21,156.47,165.26,156.58,165.14Z"/><path class="cls-7" d="M98.37,345.23a28.09,28.09,0,0,0-.42,5.06,79.92,79.92,0,0,1,12.83-.55c.68-2.29-.93-5.81-1.83-7.78a27.47,27.47,0,0,0-7.65-9.75c-.92-.85-2-1.83-2-1.81a4.45,4.45,0,0,0,.64.67c.64.48,1.1,2,.31,6.48A78.21,78.21,0,0,1,98.37,345.23Z"/><path class="cls-10" d="M265.85,350.2c.29.19.56.39.82.6,1.58-.21,3.15-.43,4.72-.66a20,20,0,0,0-1-6A79.73,79.73,0,0,0,266.76,334a18.25,18.25,0,0,1-1.41-3.58c-.64-2.22-.22-2.3-.79-4.31-.82-2.94-2.05-4-1.53-5.75.12-.42.43-1.16.28-1.25s-.59.42-.74.59c-5.34,6-8.18,19.61-8.18,19.61-.87,4.17-.81,4.89-.39,5.63C255.7,348,260.6,346.8,265.85,350.2Z"/><path class="cls-7" d="M132.57,225.38c.12-1.68.22-3.23.28-4.72C132.72,222.27,132.64,223.83,132.57,225.38Z"/><path class="cls-7" d="M137.22,202.24c-.09,0-1.85,5.12-3.31,5s-2-5.3-2.12-5.27.51,5.72.75,7.91a67.28,67.28,0,0,1,.31,10.82A50.57,50.57,0,0,1,135,209.38C135.78,206.86,137.42,202.33,137.22,202.24Z"/><path class="cls-7" d="M125.74,350.29h0c.26-3.76,1-15.84,1.64-30.84-.13,2.17-.26,4.51-.41,7.06C126.44,336.38,125.91,346.79,125.74,350.29Z"/><path class="cls-7" d="M132.56,225.58c0-.07,0-.13,0-.2,0,.75-.11,1.51-.17,2.32-1.23,16.32-2.94,36.48-3.6,45.81-1,14.68-.06,11.65-1.18,40.8-.07,1.75-.14,3.46-.21,5.14,1.68-29.13,2.15-27.49,2.74-43.14C130.79,259.39,131.77,242.49,132.56,225.58Z"/><path class="cls-7" d="M219.72,197.6c-.05,0,1.68,4.48,2.59,7.3,1.93,6,1.33,8.29,2.49,21.29.39,4.35,0,2.35,1.59,14.78.41,3.33.89,7.72,1.41,14.06,2.1,25.62,1.52,35.7,3.16,50.73,1.28,11.72,1.86,17.46,2.67,22,2.15,12.06,4.85,20.84,5,20.8s-5.75-23.07-7.65-42.82c-.5-5.21-.74-9.29-.74-9.29-.32-5.5-.33-10.08-.62-19.51-.09-2.64-.16-4.91-.25-7.31,0,0-.22-5.75-.47-10.94-.44-9-1.6-18.59-2.32-25.39-.75-7-.66-7.07-1.18-12.4-.67-6.69-1.26-12.22-1.68-16.06,1.53-7.19,2-9.31,1.92-9.32s-1.08,7.32-2.85,7.4C221.23,203,219.78,197.58,219.72,197.6Z"/><path class="cls-7" d="M118.16,335.06s0,.61,0,6.75c0-.34,0-.69,0-1.11A47.34,47.34,0,0,0,118.16,335.06Z"/><path class="cls-7" d="M118.12,350.21c0-2.81,0-4.77,0-5.18v-3.22c-.11,1.74-.25,2.59-.32,4.92,0,1.42,0,1.68,0,3.45Z"/><path class="cls-7" d="M245.23,331.27c0-9,.05-9.85,0-9.86s-.22,3.57-.1,8.22C245.19,330.25,245.21,330.78,245.23,331.27Z"/><path class="cls-7" d="M245.43,350.19h.15c0-1.75-.07-4.18-.05-7,0-3.47.08-3.56,0-5.65-.06-2.95-.22-4-.33-6.22,0,1.19,0,2.53,0,4.06,0,.83,0,6.84.2,14.28C245.42,349.81,245.43,350,245.43,350.19Z"/><path class="cls-11" d="M173.57,237v38"/><path class="cls-11" d="M176.85,233.08v37.24"/><path class="cls-11" d="M192.19,253.48,155,253.11"/><path class="cls-11" d="M195.47,249.37l-37.24,0"/><rect class="cls-12" width="335.12" height="349.8"/></svg>