<svg id="Capa_1" data-name="Capa 1" xmlns="http://www.w3.org/2000/svg" viewBox="0 0 393.84 384.91"><defs><style>.cls-1{fill:#65c8d0;}.cls-1,.cls-10,.cls-2,.cls-9{stroke:#65c8d0;}.cls-1,.cls-10,.cls-2,.cls-3,.cls-5,.cls-9{stroke-miterlimit:10;}.cls-2{fill:#a0dbff;}.cls-3,.cls-8{fill:#fbb03b;}.cls-3{stroke:#fbb03b;}.cls-4{fill:#f7931e;}.cls-5{fill:#29abe2;stroke:#29abe2;}.cls-6{fill:#0071bc;}.cls-7{fill:#754c24;}.cls-9{fill:#51e5ff;}.cls-10{opacity:0.32;}</style></defs><rect class="cls-1" x="1.9" y="0.5" width="390.58" height="382.56"/><path class="cls-2" d="M0,222.16v93C-.43,366.91-2.93,382,0,382.56c8.48,1.7,16.78-127.26,72.18-142.76,31.69-8.86,46.72,28.37,121.91,36.89,44.77,5.08,70.28-4.63,78.47-8.07,22.59-9.51,35.51-22.81,53.86-41.65,25.93-26.64,59.89-61.51,64.16-109.07,1.34-15-1.46-17.66,0-49.73.4-8.86.47-23.28.8-52.13.13-11.17.11-12.33-.8-12.83C377-4.32,293.05,206,198.9,203.71,135.25,202.2,108,104.53,60.15,117.9,27.81,126.93,1.36,182.42,0,222.16Z" transform="translate(1.9 0.5)"/><path class="cls-3" d="M171.06,79.64c-26.51,17.81-23.58,53.83-16.52,71.12,4.1,10,9.14,22.34,19.14,25.85,2.52.89,8.25,2.23,11.38,7.25.32.51,1.6,2.65,2.13,7.47.78,7.06-4.13,11-1.73,17.06a6.55,6.55,0,0,0,.47,1c3.75,6.21,19.71,5.43,23.14-.83,1-1.8.16-2.8-.35-12.29-.32-6-.46-9,.18-10.49,2.64-6.08,11.39-4.95,19.54-9.3,8.65-4.61,12.25-13.07,16.09-22.1,2.71-6.38,17.5-41.15-4.05-65.65C223.87,69.85,192.86,65,171.06,79.64Z" transform="translate(1.9 0.5)"/><path class="cls-4" d="M182.77,181.66c.1-.11,1.38.92,1.81,1.25,2.7,2.07,5.93,2.47,9.27,2.88A29.18,29.18,0,0,0,206,185c3.59-1.07,6.79-2.87,6.89-2.67s-.6.48-1.24.89c-4.71,3.05-5.5,5-8.75,6.05a12.42,12.42,0,0,1-2.82.51c-8,.75-14-4.41-15.89-6.36C184.07,183.28,182.65,181.79,182.77,181.66Z" transform="translate(1.9 0.5)"/><path class="cls-5" d="M112.87,328.8l-.2.25c.37,2.6.58,3.92.62,3.91S113.19,331.57,112.87,328.8Z" transform="translate(1.9 0.5)"/><path class="cls-5" d="M322.1,313.76c-13.67-55.65-22.26-68.55-27.12-73.3-.14-.14-.78-.72-1.75-1.55-14.71-12.67-26.36-14.82-55.13-25-4.13-1.47-10.32-3.71-17.85-6.61,0,0-9-3.45-9.84-1.61-.19.41.41,1.19,0,2.35a3.22,3.22,0,0,1-.6,1,13.51,13.51,0,0,1-3.94,3.09,20.77,20.77,0,0,1-3.34,1.69c-1.72.48-3.11.24-5.5-.25-9.63-2-11.28-3.18-12.23-4.74a5.67,5.67,0,0,1-.5-1l-1.05.33S180.7,209,178,210c-13.49,5.18-28.54,13.08-28.54,13.08S64.27,269.61,49.71,287.7c-.34.43-3,3.44-6.42,7.94-1.4,1.82-3.28,4.16-6.06,7.4-3.27,3.8-5.58,6.33-6.93,10.61a23.13,23.13,0,0,0-.53,11.12c2.89,3.24,15.06,16.17,35.16,18.15,26.1,2.58,43.45-15.49,45.48-17.67,14.85-15.49,32.06-32.35,35-30,.95.76,0,3.26-.78,5.72,0,0-6.78,20.93-2.92,65.89.67,7.9.74,8.23.74,8.23a14.35,14.35,0,0,1,.41,4.35c0,.72-.11,1.43-.21,2.15,2.28,0,4.55.06,6.83.23,3.67.28,7.3.82,10.91,1.45l.45,0a5.62,5.62,0,0,1,1.65-.39,77.53,77.53,0,0,1,14.85.05,5.12,5.12,0,0,1,.7-.05,5.78,5.78,0,0,1,.95.09H179c2.42,0,4.83-.09,7.25-.1a5.23,5.23,0,0,1,1.41.18l3.7-.46a4.21,4.21,0,0,1,2.94.57,27.12,27.12,0,0,1,6.42-.57,4.79,4.79,0,0,1,2.9,1h1.92l1.77,0c3.67-.08,7.34-.16,11-.29,1.48-.08,2.95-.16,4.43-.21h.89c2.66-.13,5.32-.27,8-.46a4.44,4.44,0,0,1,3.09.83,117.19,117.19,0,0,0,12,.31,175.71,175.71,0,0,1,17.77-.09,306.89,306.89,0,0,1,32.52-.79c7,.26,14.1.64,21.16,1.07,4.1-.25,8.2-.46,12.3-.58C333.51,376,333.7,361,322.1,313.76Z" transform="translate(1.9 0.5)"/><path class="cls-6" d="M214.67,324.71c-.63-3.6-20.43-2.45-23.49-2.26-13.35.84-32.73,3.69-56.26,13.21C126,370.42,128.31,380,132.3,382c2.82,1.45,6.56-1,17.17-.25,3.79.29,7.53.86,11.27,1.52a5.17,5.17,0,0,1,1.74-.44,77.43,77.43,0,0,1,14.84.05c.18-15.23,0-32.59,12.51-44.2C200.45,328.87,215.2,327.82,214.67,324.71Z" transform="translate(1.9 0.5)"/><path class="cls-6" d="M156.58,272.43c.77.63-3.36,4.66-7.64,14.82-1.28,3-2.19,5.7-4.93,8.13-1.75,1.55-2.78,1.72-5.8,3.85-4.05,2.86-3.74,3.67-6.23,5.32-5.23,3.47-8.36,1.1-19.23,4.57-2.16.69-3.24,1.16-3.38.91-.48-.85,11-7.08,22.79-16.21C147.45,282,155.43,271.47,156.58,272.43Z" transform="translate(1.9 0.5)"/><path class="cls-7" d="M174.13,177.39c-.41,1-12.33-2.1-24.35-9.17-13.76-8.1-15.95-14.1-16.41-15.62a38,38,0,0,1-1.16-8.57c-.14-4.67.65-5.41.39-8.36-.47-5.34-3.38-6.57-5.44-11.85-2.23-5.7-1.43-10.92-.78-15.16a39.21,39.21,0,0,1,15.74-25.45,29.73,29.73,0,0,1-1-14.38c2.21-12,11.42-18.47,13.8-20,7.16-4.68,14.26-5,20.4-5.25a42.22,42.22,0,0,1,7.3.31c7,1,9.63,2.52,16.37,3.45a65,65,0,0,0,8.89.46c14.57-.25,17.67-6.72,27.91-6.58,8.11.12,17.51,4.36,22,11.52a35.4,35.4,0,0,1,5.12,17.91c0,1.71-.82,4.52.77,6.91,1.46,2.22,3.88,2.65,5.72,3.37,6.75,2.64,9.82,10.7,10.88,13.5,4.7,12.42-3.83,24.81-4.64,26a48.19,48.19,0,0,1,2.69,22.54c-1.88,11.91-13.18,22-23.21,26.23-5.2,2.22-6.63,1.42-18.32,5.73-3.65,1.35-7.93,3-8.26,2.41s5.78-3.17,10.14-9.85c1.38-2.12,2.4-4.43,4.15-9.17,1.13-3.06,3-8.11,3.71-10.64,4.65-16.26-4.29-45.31-12.38-47.55-.44-.12-2.83-.7-6.11-1.8-1.54-.51-3.33-1.17-5.33-2A28.83,28.83,0,0,1,217,93c-7.68-5.56-7.79-10.16-12.63-10.87-7-1-8.79,8.27-20.4,10.93-7.65,1.75-12-1.11-15.16,2.29-2.56,2.75-1.27,6.32-1.47,11.75a23.07,23.07,0,0,1-1,6.38c-2.9,8.92-6.82,11.82-9.82,19.48-4.7,12,.37,24.19,1.21,26.21a35.21,35.21,0,0,0,7.17,11.11C169.77,175.28,174.39,176.79,174.13,177.39Z" transform="translate(1.9 0.5)"/><path class="cls-8" d="M246.43,308.44a1.9,1.9,0,0,0,0-1.49c-.64-1.78-3.4-2.28-4.9-2.56-11.24-2.09-13.62-3-13.76-4s1.73-1.45,1.59-2.81c-.11-1.13-1.54-2.2-2.89-2.3s-1.6.8-3.8,1.38c-1.56.41-1.9.08-3.33.39-2.07.44-3.3,1.73-4.21,2.17-5.32,2.57-8.68,5.33-12.89,7.09-2.25.95-5.63,1.31-12.4,2.05a177,177,0,0,1-28,.55l-1.66-.14c-3.43-.3-6-.71-11.17-1.53-14.58-2.31-25.35-5.26-27.82-5.7-17.66-3.11-68.07-12-84.44,7.11-1.33,1.56-5.21,6.51-4.63,12.08,1,9.61,14.56,14.68,20.57,16.85,24,8.62,45.7,2.32,90.76-3.54,5.39-.61,11-1.39,16.8-2.39,21.47-3.7,33.39-7.81,33.39-7.81l.33-.11c1.6-.52,5.4-1.77,8.11-.3l.34.21a5.48,5.48,0,0,1,1,.33,43.92,43.92,0,0,0,6.18,1.43c.82.07,1.6.19,2.37.31,11.56-2.7,17.38-4.1,19.05-7.47,2.16-4.34-.94-7.85,1.47-9.91C236.05,305.31,245.12,310.7,246.43,308.44Z" transform="translate(1.9 0.5)"/><path class="cls-4" d="M149.58,332.59c-24.55,2.87-54.91,5.57-74.87,5.06a64,64,0,0,1-28.45-8.17C43.81,328,34.65,322.1,34.6,315.71c0-5.32,4.5-9.56,4.47-9.58s-8,7.72-6.83,15.52c.76,4.9,4.84,7.86,8.77,10.62,2.28,1.6,9.54,6.36,24.56,8.61a100.61,100.61,0,0,0,28.86.06c21.14-2.93,36.75-4.67,53.11-7.36l2-.32A3.71,3.71,0,0,1,149.58,332.59Z" transform="translate(1.9 0.5)"/><path class="cls-4" d="M237,307.47c-.21-.22-1.41-.12-3.79.06s-2.79.34-3.75.18c-1.69-.28-2.23-1-2.88-.63s-.37,1.27-.93,3-1.07,1.76-1.9,3.5a20.4,20.4,0,0,0-1.19,4.08,14.33,14.33,0,0,1-3.44,5.7,20.17,20.17,0,0,1-9,1.38,20.43,20.43,0,0,1-8.36-2.48c-16,2.08-24,3.34-26.74,4h0c-10,2.53-6.15.73-39.46,6.26-8.68,1.44-29.28,4.86-29.23,5.41.06.78,27.92-1.32,58.89-7.27,8.25-1.59,15.15-3.15,20.14-4.33a93.39,93.39,0,0,1,16.72-2.91l.15.18a5.77,5.77,0,0,1,1.2.35,43.76,43.76,0,0,0,6.19,1.44c1.17.11,2.26.27,3.36.48l.79,0c3.85-.15,4.79.1,6.17,0,0,0,.59,0,1.18-.11,4.15-.55,8.75-5.88,8.75-5.88C233.25,316,238.36,308.88,237,307.47Z" transform="translate(1.9 0.5)"/><path class="cls-4" d="M208.82,302.77,193.67,308c5.53-.77,10.48-1.76,14.65-2.73q9-6.56,8.73-6.94T208.82,302.77Z" transform="translate(1.9 0.5)"/><path class="cls-4" d="M128.18,303c-2.44-.55-9.26-2.15-18.6-3.44-2.83-.39-4.24-.59-4.25-.56-.13.43,41.84,15.45,88.34,9a171.5,171.5,0,0,1-25.33.93C150.78,308.23,133.93,304.31,128.18,303Z" transform="translate(1.9 0.5)"/><path class="cls-4" d="M229.05,298.59c-.05-.06-.5.19-.89.52a8.17,8.17,0,0,1-.92.86,3.4,3.4,0,0,1-.54.29,3.67,3.67,0,0,1-2,0,27,27,0,0,0,4.42,1.22c0-.08-1.26-.41-1.33-1.1a.84.84,0,0,1,.07-.4c.12-.33.35-.42.75-.81C228.75,299,229.09,298.64,229.05,298.59Z" transform="translate(1.9 0.5)"/><path class="cls-4" d="M85.87,334.1" transform="translate(1.9 0.5)"/><path class="cls-4" d="M195,350.44" transform="translate(1.9 0.5)"/><path class="cls-6" d="M94.62,297.11c-.26.28-2-1-4.53-2.49a32.9,32.9,0,0,0-4-1.61,19.06,19.06,0,0,0-9.77-.29,15.2,15.2,0,0,1,9.77.29l4,1.61,2,.8s.71.44.92.31-.36-1.64-1-3.44c-.21-.61-.53-1.87-1.17-4.37a26.82,26.82,0,0,1-.83-3.56,15.83,15.83,0,0,1,1.15,3.21c.39,1.41.34,1.67.79,3.36a21.11,21.11,0,0,0,.84,2.68C93.74,295.88,94.84,296.87,94.62,297.11Z" transform="translate(1.9 0.5)"/><path class="cls-6" d="M33,324.24a12.71,12.71,0,0,1-.67-7.19A13.75,13.75,0,0,1,34,312.59a20.09,20.09,0,0,1,5.06-6.46c.66-.53,1.26-1,1.26-1,3.13-2.18,5.38-2.42,5.37-3.11s-2.65-.47-3.28-1.81c-1.11-2.36,4.8-7.49,4.72-7.58s-2.35,1.68-8,7.95c-3.27,3.64-5.82,6.76-7.51,8.88a31.17,31.17,0,0,0-2.31,9.94,12.08,12.08,0,0,0,.43,5.33c.92,2.5,2.66,3.86,5.74,6.27a36.75,36.75,0,0,0,7.06,4.33c8.24,3.9,12.54,5.93,18.74,7.07,10.59,1.93,19.84,0,19.83-.5s-6,.28-15.57-1.06c0,0-17.2-2.41-28.39-11.38A13.08,13.08,0,0,1,33,324.24Z" transform="translate(1.9 0.5)"/><path class="cls-6" d="M270.29,324.64c.58,9.19,1.25,16.08,1.25,16.08C271.09,334.54,270.8,329.52,270.29,324.64Z" transform="translate(1.9 0.5)"/><path class="cls-6" d="M273.73,364.64c-.64-6.25-1.16-12.14-2.19-23.92,1.15,15.58,2.66,29.43,3.9,39.66C274.87,375.42,274.27,369.94,273.73,364.64Z" transform="translate(1.9 0.5)"/><path class="cls-6" d="M267.54,308.52a116.83,116.83,0,0,1,2.75,16.12c-.51-8.06-1-17.89-.8-26.37a36.38,36.38,0,0,1,1.06-8.56c1.52-5.94,4.25-9.86,4-10s-2.42,2.84-4.48,6.78c-2.33,4.49-2.54,6.53-3.22,6.52-2.35-.05-3.33-24-3.93-24-.38,0-1.07,10,.87,22.8C264.9,299.12,266.18,302.86,267.54,308.52Z" transform="translate(1.9 0.5)"/><path class="cls-9" d="M10.43,76.19" transform="translate(1.9 0.5)"/><path class="cls-8" d="M194.38,314.84" transform="translate(1.9 0.5)"/><path class="cls-5" d="M516.59,242.74" transform="translate(1.9 0.5)"/><rect class="cls-10" x="1.9" y="0.5" width="390.58" height="382.56"/></svg>