<svg xmlns="http://www.w3.org/2000/svg" width="241.5" height="699.233" viewBox="0 0 241.5 699.233">
  <g id="Mesa_de_trabajo_1_3_" data-name="Mesa de trabajo 1 (3)" transform="translate(-307.387 -105.636)">
    <path id="Trazado_13" data-name="Trazado 13" d="M448,327.035c-27.6,5.82-45.039,30.574-49.654,52.762-4.663,22.4,4.675,41.659,7.753,48.111a79.764,79.764,0,0,0,16.869,23.742c6.717,6.428,8.1,5.344,11.169,8.97,13.555,16.025-8.543,42.888,2.446,56.16,8.223,9.928,31.93,8.609,40.135-1.892,2.825-3.615,3.187-7.537,3.886-14.977,1.633-17.387-4.536-23.417-.6-33.3,1.048-2.639,2.235-4.091,11.169-12.567,17.224-16.344,21.592-19.278,25.08-23.032,13.254-14.224,13.368-39.719,7.928-56.739C514.87,345.061,482.073,319.86,448,327.035Z" transform="translate(-35.651 -87.527)" fill="#f1cc9c"/>
    <path id="Trazado_14" data-name="Trazado 14" d="M421.326,302.037c-11.308,8.88-28.466,24.971-39.117,50-4,9.4-4.97,15.1-10.543,58.636-6.946,54.311-8.434,68.721-4.217,76.884a22.523,22.523,0,0,0,2.657,3.813c12.543,14.953,38.677,12.688,46.509,6.488a21.17,21.17,0,0,0,7.778-13.007c1.012-3.892,1.621-6.669,2.06-9.151.422-2.356.7-4.422.8-5.32.187-1.681,1.633-14.417-5.018-23.773-3.012-4.217-3.952-2.572-11.766-9.573a72.849,72.849,0,0,1-12.651-14.121c-1.319-2.012-7.9-11.687-8.247-22.465-.313-9.489,3.663-16.23,16.14-33.882,18.489-26.17,27.863-39.262,34.219-39.689,7.675-.524,16.869,9.181,34.942,28.622,25.658,27.574,27.152,36.466,27.55,40.286.09.855,1.578,18.381-8.874,31.653-9.037,11.477-17.278,15.778-17.278,15.778a25.248,25.248,0,0,0-8.38,6.181,24.851,24.851,0,0,0-4.777,9.169c-1.518,5.2-1.3,10.32,2.133,26.273,2.078,9.639,3.121,14.459,4.091,15.923,9.037,13.284,45.129,14.82,60.588-1.633,9.416-10.019,5.374-35.785-3.1-86.9-6.657-40.147-11.206-53.323-17.363-65.721-8.127-16.362-16.007-32.237-34.008-41.569C452.484,292.977,428.477,299.736,421.326,302.037Z" transform="translate(-22.943 -76.494)" fill="#897364"/>
    <path id="Trazado_15" data-name="Trazado 15" d="M539.357,860.8c-.434-17.869,2.765-24.538,2.41-32.261-1.133-26.809-44.581-64.167-90.777-57.654-33.171,4.687-61.16,31.147-70.3,66.583a189.886,189.886,0,0,1-4.061,51.738,243.389,243.389,0,0,0,166.878,2.657,145.237,145.237,0,0,1-4.151-31.062Z" transform="translate(-27.528 -264.174)" fill="#007bcc"/>
    <path id="Trazado_16" data-name="Trazado 16" d="M399.931,616.1c-.223-.139-1.476,2.175-3.705,4.115a16.923,16.923,0,0,1-7.278,3.542c-5.934,1.6-11.151,5.175-16.754,7.693-11.9,5.362-22.369,15.158-25.779,18.351-6.88,6.44-17.61,19.483-27.261,58.136-11.115,44.515-17.411,70.077-4.82,80.4,13.5,11.073,47.316,1.289,66.45-17.983,19.983-20.128,17.242-47.991,39.575-54.648a29.17,29.17,0,0,1,14.935-.693c21.754,5.055,19.477,34.761,41.063,53.262,19.808,16.977,53.371,23.128,66.45,10.374,11.242-10.953,5.012-33.014-3.536-63.2-6.784-23.953-14.109-49.81-36.749-65.576-18.676-12.989-30.5-15.483-30.5-15.483-7.8-2.265-14.778-6.759-22.339-9.736A8.627,8.627,0,0,1,446,622.2c-1.494-1.807-1.771-3.832-2.115-3.765s0,1.693-.259,3.386a11.111,11.111,0,0,1-3.223,5.826,27.983,27.983,0,0,1-22.833,7.76c-9.543-1.2-20-7.5-19.929-13.417C397.684,619.114,400.208,616.253,399.931,616.1Z" transform="translate(0 -202.932)" fill="#007bcc"/>
    <path id="Trazado_17" data-name="Trazado 17" d="M528.458,1145.031q2.042-9.681,3.922-19.4c7.772-40.629,12.694-81.933,11.693-123.291-2.024-11.067-4.181-23.5-6.476-37.412A250.136,250.136,0,0,1,370.87,962.14c-2.344,10.507-4.573,20.146-6.693,29-.223,2.169-.416,4.332-.566,6.5-1.892,27.526,1.807,55.136,4.982,82.433,2.524,21.688,4.789,43.316,4.753,65.064Z" transform="translate(-22.147 -340.505)" fill="#004e9e"/>
    <path id="Trazado_18" data-name="Trazado 18" d="M477.9,757.963c3.145-9.79,2.133-9.38,3.97-13.332,2.41-5.175,7.326-13.254,9.531-12.651,1.85.512-.428,6.518,0,18.947.392,11.29,2.3,15.007-.8,17.543-3.759,3.085-12.254,2.127-14.459-1.253C475.1,765.644,475.873,764.192,477.9,757.963Z" transform="translate(-66.906 -248.992)" fill="#f1cc9c"/>
    <path id="Trazado_19" data-name="Trazado 19" d="M510.379,767.389c-2.91-2.573-3.56-5.8-4.036-8.633-2.139-12.651-4.091-24.23-.663-25.206s10.242,9.82,13.308,16.218c1.133,2.356,8.157,17.019,3.133,20.441C519.392,772.07,513.626,770.262,510.379,767.389Z" transform="translate(-78.091 -249.604)" fill="#f1cc9c"/>
    <path id="Trazado_20" data-name="Trazado 20" d="M364.11,742.109c-.446.175,1.651,5.247,2.976,10.3a59.605,59.605,0,0,1,1.807,17.682c-.253,7.934-.38,11.9-2.554,15.17-2.765,4.151-5.259,3.53-14.218,11.928a65.786,65.786,0,0,0-5.422,5.741,36.8,36.8,0,0,0-4.633,6.627c.235.169,8.4-11.9,10.133-10.958.8.434-.542,3.247-.94,9.217-.374,5.609.428,8.88.494,8.874s-2.591-11.814,3.615-19.32c.2-.241.361-.4.675-.735,2.446-2.573,5.874-5.368,12.182-8.332,3.946-1.856,3.332-1.1,9.091-3.566,2.006-.855,4.6-2.115,9.8-4.633,6.277-3.012,7.886-3.892,11.4-5.344,2.187-.9,3.982-1.566,5.368-2.078,2.06-.765,8.97-3.326,9.067-3.091.145.355-15.832,3.8-33.55,13.254-2.759,1.47-8.1,4.44-10.175,2.615-1.036-.91-1.036-3.392-.651-8.338.825-10.585.253-7.193,1.06-14.6.6-5.651.916-8.476,1.349-9.983,1.9-6.627,5.639-11.5,5.386-11.645s-3.723,7.013-7.229,6.7C366.122,747.345,364.562,741.929,364.11,742.109Z" transform="translate(-13.785 -252.549)" fill="#0053a5"/>
    <path id="Trazado_21" data-name="Trazado 21" d="M608.426,735.959c.3.139-.7,5.35-1.2,10.489a89.207,89.207,0,0,0,.139,17.754c.765,7.886,1.145,11.832,2.819,14.929,2.139,3.934,3.735,3.127,10.278,10.844a60.823,60.823,0,0,1,4,5.32,41.741,41.741,0,0,1,3.554,6.271c-.1.054-6.217-12.139-7.555-11.591-.6.253.3,3.012,1.084,9.537a69.779,69.779,0,0,1,.6,9.862c.193,0,.066-13.121-3.813-18.989a7.735,7.735,0,0,0-.6-.777,19.694,19.694,0,0,0-8.043-5.332c-4.886-1.7-9.495-4.115-14.356-5.88-9.037-3.265-7.8-3.4-16.929-6.765-10.067-3.717-18.182-5.856-18.17-5.88s3.856.97,8.856,2.651c11.236,3.777,15.5,6.735,26.243,9.995,9.814,2.982,12.049,2.283,12.953,1.157.645-.831.44-3.35-.2-8.356-1.331-10.489-.7-7.151-1.807-14.459-.831-5.585-1.241-8.38-1.639-9.844-1.753-6.482-4.585-11.043-4.428-11.205s3.012,6.717,5.3,6.133C607.48,741.327,608.113,735.815,608.426,735.959Z" transform="translate(-100.518 -250.478)" fill="#0053a5"/>
    <path id="Trazado_22" data-name="Trazado 22" d="M442.51,795.7c-8.928,13.543-23.568,31.827-46.479,46.388-21.688,13.772-44.876,20.441-44.485,21.568.181.506,5.061-.4,27.207-7.181h0c8.982-3.422,34.611-13.555,52.154-38.412a94.7,94.7,0,0,0,11.6-22.363Z" transform="translate(-17.554 -274.337)" fill="#0053a5"/>
    <path id="Trazado_23" data-name="Trazado 23" d="M557.035,828.114a196.887,196.887,0,0,1-43.2-38.954c.849,1.488,2.078,3.615,3.615,6.079,0,0,4.567,7.314,9.175,13.362,7.778,10.2,30.857,30.514,62.438,41.472,1.9.657,11.742,3.9,12.145,2.94C601.852,851.519,578.609,842.38,557.035,828.114Z" transform="translate(-82.076 -271.737)" fill="#0053a5"/>
    <path id="Trazado_24" data-name="Trazado 24" d="M457.9,542.07c.036-.066,10.181,4.759,10.181,4.759,8.555,4.073,12.85,6.109,13.856,6.181,2.211.157,7.476-2.042,17.911-6.446,4.542-1.922,8.729-3.747,8.772-3.657a28.934,28.934,0,0,1-2.807,1.44c-17.164,8.26-18.923,11.236-23.652,11.218,0,0-3.844,0-22.447-12.417C458.665,542.461,457.894,542.088,457.9,542.07Z" transform="translate(-59.837 -173.505)" fill="#eda579"/>
    <path id="Trazado_25" data-name="Trazado 25" d="M496.093,1051.7c.9-.452,6.627,17.206,14.507,17.248,8.157.048,14.224-18.935,14.862-18.616.416.2-1.849,8.157-7.832,16.393-3.3,4.524-4.368,4.536-5.808,7.832-1.2,2.723-1.524,6.777-2.163,14.766-.265,3.307-.446,5.561-.554,8.8-.187,5.783,0,10.115.09,11.965.331,7.784-.349-3.012.6,25.261.789,24.044,1.711,45.081,1.7,45.081a366.91,366.91,0,0,1-1.7-45.081c.3-15.338-1.687-30.767-.114-46.027.361-3.554,1.151-9.639-1.934-15.79-1.843-3.669-3.657-4.56-6.832-9.9C497.262,1057.579,495.593,1051.94,496.093,1051.7Z" transform="translate(-74.986 -375.567)" fill="#004392"/>
    <path id="Trazado_28" data-name="Trazado 28" d="M444.533,198.959c-.374,1.886,11.687,8.157,24.767,7.615,10.326-.434,19.821-5.061,19.519-6.928-.121-.765-1.807-.6-6.024-2.1-4.109-1.452-9.037-3.181-9.717-6.259-.651-2.862,2.591-5.85,2.964-6.187,7.019-6.308,17.266,2.115,26.327-1.994,14.459-6.567,17.736-33.677,13.254-36.014-2.524-1.325-6.024,6.127-18.64,11.886-9.711,4.446-20.6,5.952-22.4,2.8-1.452-2.56,3.994-6.627,2.566-13.441a18.15,18.15,0,0,0-1.729-4.524c-2.157-4.35-3.976-4.9-5.711-7.982-2.868-5.079-1.554-10.025-2.44-10.1s-.572,5.2-4.386,10.422c-1.584,2.169-2.886,2.958-4.82,6.205a19.941,19.941,0,0,0-2.313,4.723c-1.807,6.579,3.41,11.133,1.771,13.423-2.03,2.825-13.326.048-23.092-6.512-10.989-7.38-13.254-14.971-16.031-14.067-4.783,1.554-6.97,26.508,5.241,36.641,10.193,8.464,28.146.446,33.767,9.284.452.7,1.807,2.85,1.235,5.079-1.03,3.928-7.555,5.976-10.109,6.772C445.636,198.6,444.642,198.429,444.533,198.959Z" transform="translate(-42.62 -7.984)" fill="#bfddde"/>
    <path id="Trazado_29" data-name="Trazado 29" d="M492.81,118.687c-.03-.211,6.024.313,9.591-3.344,2.669-2.753,1.356-5.229,4.012-7.585,3.548-3.145,9.669-2.066,9.808-1.337.078.434-1.946.53-3.344,2.452-1.024,1.41-.482,2.109-1.56,4.018a6.908,6.908,0,0,1-3.121,3.121c-1.464.6-1.958-.06-4.217.127-2.446.2-2.759,1.084-6.024,1.94A13.585,13.585,0,0,1,492.81,118.687Z" transform="translate(-73.715)" fill="#aad889"/>
  </g>
</svg>
