<svg id="Capa_1" data-name="Capa 1" xmlns="http://www.w3.org/2000/svg" viewBox="0 0 390.58 382.56"><defs><style>.cls-1{fill:#65c8d0;}.cls-1,.cls-2,.cls-9{stroke:#65c8d0;}.cls-1,.cls-2,.cls-3,.cls-5,.cls-9{stroke-miterlimit:10;}.cls-2{fill:#a0dbff;}.cls-3,.cls-8{fill:#fbb03b;}.cls-3{stroke:#fbb03b;}.cls-4{fill:#f7931e;}.cls-5{fill:#29abe2;stroke:#29abe2;}.cls-6{fill:#0071bc;}.cls-7{fill:#754c24;}.cls-9{opacity:0.32;}</style></defs><rect class="cls-1" width="390.58" height="382.56"/><path class="cls-2" d="M0,222.16v93C-.43,366.91-2.93,382,0,382.56c8.48,1.7,16.78-127.26,72.18-142.76,31.69-8.86,46.72,28.37,121.91,36.89,44.77,5.08,70.28-4.63,78.47-8.07,22.59-9.51,35.51-22.81,53.86-41.65,25.93-26.64,59.89-61.51,64.16-109.07,1.34-15-1.46-17.66,0-49.73.4-8.86.47-23.28.8-52.13.13-11.17.11-12.33-.8-12.83C377-4.32,293.05,206,198.9,203.71,135.25,202.2,108,104.53,60.15,117.9,27.81,126.93,1.36,182.42,0,222.16Z"/><path class="cls-3" d="M171.06,79.64c-26.51,17.81-23.58,53.83-16.52,71.12,4.1,10,9.14,22.34,19.14,25.85,2.52.89,8.25,2.23,11.38,7.25.32.51,1.6,2.65,2.13,7.47.78,7.06-4.13,11-1.73,17.06a6.55,6.55,0,0,0,.47,1c3.75,6.21,19.71,5.43,23.14-.83,1-1.8.16-2.8-.35-12.29-.32-6-.46-9,.18-10.49,2.64-6.08,11.39-4.95,19.54-9.3,8.65-4.61,12.25-13.07,16.09-22.1,2.71-6.38,17.5-41.15-4.05-65.65C223.87,69.85,192.86,65,171.06,79.64Z"/><path class="cls-4" d="M182.77,181.66c.1-.11,1.38.92,1.81,1.25,2.7,2.07,5.93,2.47,9.27,2.88A29.18,29.18,0,0,0,206,185c3.59-1.07,6.79-2.87,6.89-2.67s-.6.48-1.24.89c-4.71,3.05-5.5,5-8.75,6.05a12.42,12.42,0,0,1-2.82.51c-8,.75-14-4.41-15.89-6.36C184.07,183.28,182.65,181.79,182.77,181.66Z"/><path class="cls-5" d="M118.36,337l-.08.31c1.45,2.19,2.2,3.29,2.24,3.27S119.83,339.35,118.36,337Z"/><path class="cls-5" d="M322.1,313.76c-15.5-63.1-24.47-71.24-28.87-74.85-13.38-11-20.93-6.49-44.47-20.64-5.21-3.13-2.41-1-28.51-11,0,0-9-3.45-9.84-1.61-.19.41.41,1.19,0,2.35a3.22,3.22,0,0,1-.6,1,13.51,13.51,0,0,1-3.94,3.09,20.77,20.77,0,0,1-3.34,1.69c-1.72.48-3.11.24-5.5-.25-9.63-2-11.28-3.18-12.23-4.74a5.67,5.67,0,0,1-.5-1l-1.05.33S180.7,209,178,210c-3.53,1.35-15.41,6.48-28.54,13.08-2.55,1.29-5.78,2.95-9.78,5.31-1.41.84-2.9,1.75-4.49,2.76a155.73,155.73,0,0,0-13.53,9.78c-15.5,12.47-31.77,29.52-36.61,34.61-19,20-28.53,29.87-29.82,31.83-6.48,9.82-14.71,26.09-17.49,50.9,2.24,4.49,6,10,11.88,11.87,8.15,2.59,12.68-3.89,28.09-9.86,19.06-7.39,29.2-2.47,36.05-12.26a28.38,28.38,0,0,0,4.5-10.74c-1.67-2.54-4.29-6.54-7.87-12,14.85-15.49,32.06-32.35,35-30,.95.76,0,3.26-.78,5.72,0,0-6.78,20.93-2.92,65.89.67,7.9.74,8.23.74,8.23a14.35,14.35,0,0,1,.41,4.35c0,1-.16,1.91-.3,2.87a26.58,26.58,0,0,1,7.66,1.18c5.57-.66,11.27-.08,16.89.05l7.07.13h.18c.3,0,.6,0,.9-.09l.3,0a5.08,5.08,0,0,1,1-.42h0l.09,0a5.22,5.22,0,0,1,1.41-.19,5.78,5.78,0,0,1,.95.09h0a4.94,4.94,0,0,1,.9.24,4.64,4.64,0,0,1,1.29-.21l1.33.18a4,4,0,0,1,.93.35q4-.4,8-.93a4.21,4.21,0,0,1,2.94.57,27.12,27.12,0,0,1,6.42-.57,4.79,4.79,0,0,1,2.9,1h1.92l1.77,0c3.67-.08,7.34-.16,11-.29,1.48-.08,2.95-.16,4.43-.21h.89c2.66-.13,5.32-.27,8-.46a4.44,4.44,0,0,1,3.09.83,117.19,117.19,0,0,0,12,.31,175.71,175.71,0,0,1,17.77-.09,306.89,306.89,0,0,1,32.52-.79c7,.26,14.1.64,21.16,1.07,4.1-.25,8.2-.46,12.3-.58C333.51,376,333.7,361,322.1,313.76Z"/><path class="cls-6" d="M208.55,289.58c-2-2.78-19.45,6.67-22.14,8.14A188.49,188.49,0,0,0,140.86,333c0,4.85.08,13,.09,23.15,0,20.22-.12,23.53,1.21,26.16l.26,0a22.2,22.2,0,0,1,5.89.7c2.7,0,5.4,0,8.09.16,2.91,0,5.83.19,8.74.3,2.62.07,5.24.08,7.89,0l2.9-.12h0a4.59,4.59,0,0,1,1-.33H177l.42-.06h0a5.49,5.49,0,0,1,.58,0,5.34,5.34,0,0,1,.92.08h0a4.21,4.21,0,0,1,.74.18h.34a4.56,4.56,0,0,1,1.11-.14l.5.07,8.81-.35.91-.12a4.87,4.87,0,0,1,1.58,0c3.15-.11,6.3-.21,9.47-.27,10-17.38-22.74-42.91-10.74-70.27C197.37,299.19,210.28,292,208.55,289.58Z"/><path class="cls-6" d="M156.58,272.43c.77.63-3.36,4.66-7.64,14.82-1.28,3-2.19,5.7-4.93,8.13-1.75,1.55-2.78,1.72-5.8,3.85-4.05,2.86-3.74,3.67-6.23,5.32-5.23,3.47-8.36,1.1-19.23,4.57-2.16.69-3.24,1.16-3.38.91-.48-.85,11-7.08,22.79-16.21C147.45,282,155.43,271.47,156.58,272.43Z"/><path class="cls-7" d="M174.13,177.39c-.41,1-12.33-2.1-24.35-9.17-13.76-8.1-15.95-14.1-16.41-15.62a38,38,0,0,1-1.16-8.57c-.14-4.67.65-5.41.39-8.36-.47-5.34-3.38-6.57-5.44-11.85-2.23-5.7-1.43-10.92-.78-15.16a39.21,39.21,0,0,1,15.74-25.45,29.73,29.73,0,0,1-1-14.38c2.21-12,11.42-18.47,13.8-20,7.16-4.68,14.26-5,20.4-5.25a42.22,42.22,0,0,1,7.3.31c7,1,9.63,2.52,16.37,3.45a65,65,0,0,0,8.89.46c14.57-.25,17.67-6.72,27.91-6.58,8.11.12,17.51,4.36,22,11.52a35.4,35.4,0,0,1,5.12,17.91c0,1.71-.82,4.52.77,6.91,1.46,2.22,3.88,2.65,5.72,3.37,6.75,2.64,9.82,10.7,10.88,13.5,4.7,12.42-3.83,24.81-4.64,26a48.19,48.19,0,0,1,2.69,22.54c-1.88,11.91-13.18,22-23.21,26.23-5.2,2.22-6.63,1.42-18.32,5.73-3.65,1.35-7.93,3-8.26,2.41s5.78-3.17,10.14-9.85c1.38-2.12,2.4-4.43,4.15-9.17,1.13-3.06,3-8.11,3.71-10.64,4.65-16.26-4.29-45.31-12.38-47.55-.44-.12-2.83-.7-6.11-1.8-1.54-.51-3.33-1.17-5.33-2A28.83,28.83,0,0,1,217,93c-7.68-5.56-7.79-10.16-12.63-10.87-7-1-8.79,8.27-20.4,10.93-7.65,1.75-12-1.11-15.16,2.29-2.56,2.75-1.27,6.32-1.47,11.75a23.07,23.07,0,0,1-1,6.38c-2.9,8.92-6.82,11.82-9.82,19.48-4.7,12,.37,24.19,1.21,26.21a35.21,35.21,0,0,0,7.17,11.11C169.77,175.28,174.39,176.79,174.13,177.39Z"/><path class="cls-8" d="M230.36,261.43a1.88,1.88,0,0,0-.66-1.33c-1.34-1.33-4-.61-5.52-.22-11.05,2.92-13.6,3.13-14.15,2.28s.94-2.05.24-3.22c-.59-1-2.34-1.33-3.6-.84s-1.11,1.4-2.85,2.87c-1.23,1-1.68.89-2.84,1.78-1.68,1.28-2.24,3-2.87,3.76-3.71,4.6-5.57,8.53-8.62,11.93-1.63,1.81-4.53,3.59-10.34,7.15a176.09,176.09,0,0,1-25.05,12.47l-1.56.59c-3.23,1.19-5.74,1.93-10.75,3.39-14.17,4.15-25.16,6.09-27.58,6.76-17.3,4.74-66.67,18.26-73.28,42.55-.54,2-1.92,8.11,1,12.9,5,8.26,19.44,7,25.81,6.42,25.36-2.46,42.3-17.45,80.51-42q6.93-4.27,14.16-9.34C180.22,306.77,189.24,298,189.24,298l.25-.24c1.21-1.15,4.12-3.91,7.2-3.74l.39,0a5.87,5.87,0,0,1,1.07-.15,42.44,42.44,0,0,0,6.19-1.35c.78-.28,1.53-.51,2.28-.73,9.29-7.38,13.95-11.14,14-14.9.09-4.85-4.21-6.7-2.91-9.59C219.64,263,230.15,264,230.36,261.43Z"/><path class="cls-4" d="M153.16,324.7c-21,13.09-47.25,28.53-65.51,36.6a64.07,64.07,0,0,1-29.21,4.79c-2.83-.25-13.65-1.7-16.43-7.46-2.31-4.79,0-10.56-.06-10.56s-4,10.41.47,16.94c2.79,4.11,7.74,5,12.47,5.85,2.74.47,11.34,1.67,25.88-2.72a101,101,0,0,0,26.12-12.3c17.85-11.69,31.21-19.94,44.85-29.38l1.64-1.13C153.3,325.12,153.22,324.91,153.16,324.7Z"/><path class="cls-4" d="M221.39,264.6c-.29-.1-1.32.5-3.4,1.69s-2.38,1.5-3.31,1.76c-1.65.47-2.44.06-2.88.67s.21,1.3.45,3.09-.22,2.05-.23,4a20.88,20.88,0,0,0,.67,4.19,14.23,14.23,0,0,1-.67,6.63A20.3,20.3,0,0,1,195.9,293c-13.58,8.74-20.26,13.29-22.45,15.08h0c-8,6.58-5.26,3.29-33,22.54-7.22,5-24.38,16.92-24.1,17.4.39.68,24.67-13.13,50.12-31.77,6.78-5,12.35-9.32,16.35-12.53A92.75,92.75,0,0,1,196.69,294l.21.1a5.85,5.85,0,0,1,1.23-.2,42.14,42.14,0,0,0,6.21-1.35c1.1-.4,2.17-.72,3.24-1l.7-.37c3.42-1.79,4.38-2,5.6-2.61,0,0,.52-.28,1-.6,3.51-2.28,5.39-9.07,5.39-9.07C221.68,273.88,223.26,265.28,221.39,264.6Z"/><path class="cls-4" d="M193.94,272.39l-11.46,11.2c4.67-3.06,8.72-6.06,12.08-8.73q5.31-9.76,4.91-10T193.94,272.39Z"/><path class="cls-4" d="M121.16,307.11c-2.45.55-9.29,2-18.29,4.84-2.72.86-4.08,1.29-4.08,1.32.06.44,44.43-3.93,83.69-29.68A170.12,170.12,0,0,1,160,295.28C143.82,302.17,126.91,305.83,121.16,307.11Z"/><path class="cls-4" d="M210.43,260c-.06,0-.36.39-.57.86a9.5,9.5,0,0,1-.46,1.17,3.72,3.72,0,0,1-.37.49,3.49,3.49,0,0,1-1.85.89,26.83,26.83,0,0,0,4.53-.78c0-.09-1.32.16-1.68-.43a.89.89,0,0,1-.11-.39c0-.35.14-.53.33-1C210.34,260.47,210.49,260,210.43,260Z"/><path class="cls-6" d="M88.31,316.14c-.12.36-2.18,0-5.16-.31a33,33,0,0,0-4.32.26,19,19,0,0,0-9,3.92,15.16,15.16,0,0,1,9-3.92l4.32-.26,2.14-.13s.82.09,1-.11-1-1.33-2.35-2.69c-.45-.47-1.28-1.47-2.93-3.46a25.71,25.71,0,0,1-2.27-2.86A15.44,15.44,0,0,1,81.11,309c1,1.1,1,1.36,2.15,2.69a22.9,22.9,0,0,0,1.9,2.06C87,315.41,88.4,315.84,88.31,316.14Z"/><path class="cls-6" d="M44.22,367a12.81,12.81,0,0,1-3.68-6.21,13.49,13.49,0,0,1-.39-4.75,20.07,20.07,0,0,1,1.8-8c.37-.77.73-1.41.73-1.41,1.9-3.31,3.83-4.49,3.53-5.11s-2.61.71-3.75-.23c-2-1.64,1.17-8.81,1-8.87s-2.05,3.74-3.81,10.59a81.2,81.2,0,0,0-2.43,15.57c1,2,3.72,7.11,8.36,10.17a14.81,14.81,0,0,0,4.56,2.07c2.82.69,5.36.3,5.37.11a45.15,45.15,0,0,1-5.29-1A14,14,0,0,1,44.22,367Z"/><path class="cls-6" d="M270.29,324.64c.58,9.19,1.25,16.08,1.25,16.08C271.09,334.54,270.8,329.52,270.29,324.64Z"/><path class="cls-6" d="M273.73,364.64c-.64-6.25-1.16-12.14-2.19-23.92,1.15,15.58,2.66,29.43,3.9,39.66C274.87,375.42,274.27,369.94,273.73,364.64Z"/><path class="cls-6" d="M267.54,308.52a116.83,116.83,0,0,1,2.75,16.12c-.51-8.06-1-17.89-.8-26.37a36.38,36.38,0,0,1,1.06-8.56c1.52-5.94,4.25-9.86,4-10s-2.42,2.84-4.48,6.78c-2.33,4.49-2.54,6.53-3.22,6.52-2.35-.05-3.33-24-3.93-24-.38,0-1.07,10,.87,22.8C264.9,299.12,266.18,302.86,267.54,308.52Z"/><rect class="cls-9" width="390.58" height="382.56"/></svg>