<svg id="Capa_1" data-name="Capa 1" xmlns="http://www.w3.org/2000/svg" viewBox="0 0 941.37 1265.54"><defs><style>.cls-1{fill:#4fb1b4;stroke:#000;stroke-miterlimit:10;}.cls-2{fill:#96cdd5;}.cls-3{fill:#f1cc9c;}.cls-4{fill:#897364;}.cls-5{fill:#007bcc;}.cls-6{fill:#004e9e;}.cls-7{fill:#0053a5;}.cls-8{fill:#eda579;}.cls-9{fill:#004392;}.cls-10{fill:#bfddde;}.cls-11{fill:#aad889;}</style></defs><rect class="cls-1" width="941.37" height="1265.54"/><path class="cls-2" d="M303.83,732.75C202.16,667.59,130.59,547.52,138.15,418.21,148.59,239.83,307.73,75.63,505.52,80.85c186.29,4.92,329.1,158.08,347,324.15,11.82,109.92-31.16,225-117.66,300.13C614.73,809.51,434.44,816.44,303.83,732.75Z"/><path class="cls-3" d="M481.61,327.85c-45.82,9.66-74.76,50.75-82.42,87.58-7.74,37.18,7.76,69.15,12.87,79.86a132.4,132.4,0,0,0,28,39.41c11.15,10.67,13.44,8.87,18.54,14.89,22.5,26.6-14.18,71.19,4.06,93.22,13.65,16.48,53,14.29,66.62-3.14,4.69-6,5.29-12.51,6.45-24.86,2.71-28.86-7.53-38.87-1-55.28,1.74-4.38,3.71-6.79,18.54-20.86,28.59-27.13,35.84-32,41.63-38.23,22-23.61,22.19-65.93,13.16-94.18C592.61,357.77,538.17,315.94,481.61,327.85Z"/><path class="cls-4" d="M458.43,304.67c-18.77,14.74-47.25,41.45-64.93,83-6.64,15.61-8.25,25.06-17.5,97.33-11.53,90.15-14,114.07-7,127.62a37.39,37.39,0,0,0,4.41,6.33c20.82,24.82,64.2,21.06,77.2,10.77a39.8,39.8,0,0,0,6.65-6.88c3.39-4.66,4.81-9.13,6.26-14.71,1.68-6.46,2.69-11.07,3.42-15.19.7-3.91,1.16-7.34,1.33-8.83.31-2.79,2.71-23.93-8.33-39.46-5-7-6.56-4.27-19.53-15.89-4.87-4.37-13.83-12.49-21-23.44-2.19-3.34-13.11-19.4-13.69-37.29-.52-15.75,6.08-26.94,26.79-56.24,30.69-43.44,46.25-65.17,56.8-65.88,12.74-.87,28,15.24,58,47.51,42.59,45.77,45.07,60.53,45.73,66.87.15,1.42,2.62,30.51-14.73,52.54-15,19.05-28.68,26.19-28.68,26.19-3.06,1.59-8.75,4.24-13.91,10.26a41.25,41.25,0,0,0-7.93,15.22c-2.52,8.63-2.16,17.13,3.54,43.61,3.45,16,5.18,24,6.79,26.43,15,22.05,74.91,24.6,100.57-2.71,15.63-16.63,8.92-59.4-5.15-144.25-11.05-66.64-18.6-88.51-28.82-109.09-13.49-27.16-26.57-53.51-56.45-69C510.15,289.63,470.3,300.85,458.43,304.67Z"/><path class="cls-5" d="M646.74,920.63c-.72-29.66,4.59-40.73,4-53.55-1.88-44.5-74-106.51-150.68-95.7C445,779.16,398.54,823.08,383.37,881.9a315.19,315.19,0,0,1-6.74,85.88,404,404,0,0,0,277,4.41A241.07,241.07,0,0,1,646.74,920.63Z"/><path class="cls-5" d="M461,616.1c-.37-.23-2.45,3.61-6.15,6.83a28.09,28.09,0,0,1-12.08,5.88c-9.85,2.65-18.51,8.59-27.81,12.77-19.76,8.9-37.13,25.16-42.79,30.46-11.42,10.69-29.23,32.34-45.25,96.5-18.45,73.89-28.9,116.32-8,133.46,22.41,18.38,78.54,2.14,110.3-29.85,33.17-33.41,28.62-79.66,65.69-90.71a48.42,48.42,0,0,1,24.79-1.15c36.11,8.39,32.33,57.7,68.16,88.41,32.88,28.18,88.59,38.39,110.3,17.22,18.66-18.18,8.32-54.8-5.87-104.9-11.26-39.76-23.42-82.68-61-108.85-31-21.56-50.63-25.7-50.63-25.7-12.95-3.76-24.53-11.22-37.08-16.16a14.32,14.32,0,0,1-6.11-4.07c-2.48-3-2.94-6.36-3.51-6.25s0,2.81-.43,5.62c-.66,4.44-3.35,7.44-5.35,9.67-4,4.42-18.39,15.29-37.9,12.88-15.84-2-33.2-12.45-33.08-22.27C457.27,621.11,461.46,616.36,461,616.1Z"/><path class="cls-6" d="M637.58,1265.72q3.39-16.07,6.51-32.2c12.9-67.44,21.07-136,19.41-204.65-3.36-18.37-6.94-39-10.75-62.1A415.2,415.2,0,0,1,376,962.14c-3.89,17.44-7.59,33.44-11.11,48.14-.37,3.6-.69,7.19-.94,10.79-3.14,45.69,3,91.52,8.27,136.83,4.19,36,7.95,71.9,7.89,108Z"/><path class="cls-3" d="M479.36,775.13c5.22-16.25,3.54-15.57,6.59-22.13,4-8.59,12.16-22,15.82-21,3.07.85-.71,10.82,0,31.45.65,18.74,3.81,24.91-1.32,29.12-6.24,5.12-20.34,3.53-24-2.08C474.72,787.88,476,785.47,479.36,775.13Z"/><path class="cls-3" d="M514.71,789.76c-4.83-4.27-5.91-9.63-6.7-14.33-3.55-21-6.79-40.22-1.1-41.84s17,16.3,22.09,26.92c1.88,3.91,13.54,28.25,5.2,33.93C529.67,797.53,520.1,794.53,514.71,789.76Z"/><path class="cls-7" d="M378.66,742.91c-.74.29,2.74,8.71,4.94,17.1a98.94,98.94,0,0,1,3,29.35c-.42,13.17-.63,19.75-4.24,25.18-4.59,6.89-8.73,5.86-23.6,19.8a109.18,109.18,0,0,0-9,9.53c-4.42,5.27-7.89,10.87-7.69,11,.39.28,13.95-19.75,16.82-18.19,1.32.72-.9,5.39-1.56,15.3-.62,9.31.71,14.74.82,14.73s-4.3-19.61,6-32.07c.33-.4.6-.67,1.12-1.22,4.06-4.27,9.75-8.91,20.22-13.83,6.55-3.08,5.53-1.83,15.09-5.92,3.33-1.42,7.64-3.51,16.26-7.69,10.42-5,13.09-6.46,18.93-8.87,3.63-1.49,6.61-2.6,8.91-3.45,3.42-1.27,14.89-5.52,15.05-5.13.24.59-26.28,6.3-55.69,22-4.58,2.44-13.44,7.37-16.89,4.34-1.72-1.51-1.72-5.63-1.08-13.84,1.37-17.57.42-11.94,1.76-24.23,1-9.38,1.52-14.07,2.24-16.57,3.15-11,9.36-19.09,8.94-19.33s-6.18,11.64-12,11.12C382,751.6,379.41,742.61,378.66,742.91Z"/><path class="cls-7" d="M640.23,736.14c.5.23-1.16,8.88-2,17.41a148.08,148.08,0,0,0,.23,29.47c1.27,13.09,1.9,19.64,4.68,24.78,3.55,6.53,6.2,5.19,17.06,18a101,101,0,0,1,6.64,8.83,69.3,69.3,0,0,1,5.9,10.41c-.16.09-10.32-20.15-12.54-19.24-1,.42.49,5,1.8,15.83A115.82,115.82,0,0,1,663,858c.32,0,.11-21.78-6.33-31.52a12.85,12.85,0,0,0-1-1.29,32.69,32.69,0,0,0-13.35-8.85c-8.11-2.82-15.76-6.83-23.83-9.76-15-5.42-12.95-5.65-28.1-11.23-16.71-6.17-30.18-9.72-30.16-9.76s6.4,1.61,14.7,4.4c18.65,6.27,25.73,11.18,43.56,16.59,16.29,4.95,20,3.79,21.5,1.92,1.07-1.38.73-5.56-.33-13.87-2.21-17.41-1.16-11.87-3-24-1.38-9.27-2.06-13.91-2.72-16.34-2.91-10.76-7.61-18.33-7.35-18.6s5,11.15,8.79,10.18C638.66,745.05,639.71,735.9,640.23,736.14Z"/><path class="cls-7" d="M502.54,795.7c-14.82,22.48-39.12,52.83-77.15,77-36,22.86-74.49,33.93-73.84,35.8.3.84,8.4-.66,45.16-11.92h0c14.91-5.68,57.45-22.5,86.57-63.76A157.19,157.19,0,0,0,502.54,795.7Z"/><path class="cls-7" d="M585.54,853.82a326.82,326.82,0,0,1-71.7-64.66c1.41,2.47,3.45,6,6,10.09,0,0,7.58,12.14,15.23,22.18,12.91,16.93,51.22,50.65,103.64,68.84,3.16,1.09,19.49,6.48,20.16,4.88C659.93,892.67,621.35,877.5,585.54,853.82Z"/><path class="cls-8" d="M457.9,542.07c.06-.11,16.9,7.9,16.9,7.9,14.2,6.76,21.33,10.14,23,10.26,3.67.26,12.41-3.39,29.73-10.7,7.54-3.19,14.49-6.22,14.56-6.07s-3.66,1.9-4.66,2.39c-28.49,13.71-31.41,18.65-39.26,18.62,0,0-6.38,0-37.26-20.61C459.17,542.72,457.89,542.1,457.9,542.07Z"/><path class="cls-9" d="M496.15,1052.61c1.49-.75,11,28.56,24.08,28.63,13.54.08,23.61-31.43,24.67-30.9.69.34-3.07,13.54-13,27.21-5.47,7.51-7.25,7.53-9.64,13-2,4.52-2.53,11.25-3.59,24.51-.44,5.49-.74,9.23-.92,14.61-.31,9.6,0,16.79.15,19.86.55,12.92-.58-5,1,41.93,1.31,39.91,2.84,74.83,2.83,74.83s-3.68-31.52-2.83-74.83c.5-25.46-2.8-51.07-.19-76.4.6-5.9,1.91-16-3.21-26.21-3.06-6.09-6.07-7.57-11.34-16.44C498.09,1062.36,495.32,1053,496.15,1052.61Z"/><path class="cls-10" d="M365.59,1265.4C388.23,1239,363,1172.08,326,1137.09c-19.9-18.82-44.78-28-47.75-29.06-10.44-3.78-40.71-14.75-55.29-7.48-1.12.56-5.21,2.75-7,1.25-2.5-2.12,1.2-10.27,2.06-12.26,2.24-5.13,4.78-23.22,9.86-59.4,1.19-8.51,6.24-44.36-7.76-79.88,0,0-22.27-56.47-95.5-87.19-16.81-7.05-25.22-10.58-31.91-10.75-2.6-.07-9.33,0-10-2.4-.42-1.43,1.54-2.95,4-5.62,0,0,.85-.91,8-11.62,21.43-32,21.6-77.72,21.6-77.72.13-33.55-10.78-94.24-47.33-106.26a45,45,0,0,0-18-1.93c-4.72,3-10.15,6-11.32,4.74-.95-1,1.38-4.32,3-7.3,5.62-10.51,4.44-21.51,3.85-27-.26-2.4-2.64-24.47-14.17-28.29-3-1-6.58-.73-7.24-2.69-.73-2.15,2.84-4.76,4.72-6.9,10.84-12.28-1.1-46.35-12.2-47.5-2.53-.27-4.67,1.22-6.32-.19-2-1.67-.47-5.08-.1-12s.62-11.57-1.93-15.41c-2.75-4.15-6.2-3.69-8.34-8.35a14.09,14.09,0,0,1-1-7.7c-.24,0,.65,12.63,1,23.75a373.11,373.11,0,0,1-1,38.52c-1,16.17-1.61,52.86,0,139.6v40.15Q0,861,0,991.78c.08,47.92-.59,34,0,174.38.18,41.77.45,76.22.66,99.38h106Z"/><path class="cls-10" d="M621.23,1265.4c-34.22,0-68.44-.14-102.65.07,0,0-64.66.39-64.66-1.06,0-.4,25.08,5.54,46.9-7.19,8.89-5.18,13.11-10.79,25.71-15.07,11.35-3.86,12.6-.39,20.67-3.71,16.67-6.86,13-22.33,29.14-30.21,7.33-3.57,22.45-7.39,35-1.59,4.72,2.18,10.38,6.33,13.25,4.24,2.09-1.52,1.56-5.48,1.44-6.59-1.37-13.14,11-45.68,29.83-67.2,16-18.31,34.59-26.08,41.77-29.06,9.14-3.78,35.62-14.75,48.38-7.48,1,.56,4.56,2.75,6.11,1.25,2.2-2.12-1-10.27-1.8-12.26-2-5.13-4.18-23.22-8.62-59.4-1-8.51-5.47-44.36,6.79-79.88,0,0,19.48-56.47,83.54-87.19,14.72-7.05,22.08-10.58,27.93-10.75,2.27-.07,8.16,0,8.77-2.4.36-1.43-1.36-2.95-3.51-5.62,0,0-.84-1-7-11.62-26.11-44.76-8.1-113.31,20.34-123.07,11.7-4,21,3.26,30.07-4.63,8.18-7.16,10.42-21.79,11.35-27.82,1.19-7.78.67-13.52,5-20.71,2.61-4.33,5.09-6.05,7.38-8.47,12.59-13.31,9-36.89,9-36.89s0,13.36-.29,79v40.15q0,130.77,0,261.56c-.06,47.92.52,34,0,174.38-.15,41.77-.39,76.22-.57,99.38H847.78Z"/><path class="cls-10" d="M464.29,247.29c-.62,3.13,19.4,13.54,41.11,12.64,17.14-.72,32.9-8.4,32.4-11.5-.2-1.27-3-1-10-3.49-6.82-2.41-15-5.28-16.13-10.39-1.08-4.75,4.3-9.71,4.92-10.27,11.65-10.47,28.66,3.51,43.7-3.31,24-10.9,29.44-55.9,22-59.78-4.19-2.2-10,10.17-30.94,19.73-16.12,7.38-34.2,9.88-37.18,4.64-2.41-4.25,6.63-11,4.26-22.31a30.13,30.13,0,0,0-2.87-7.51c-3.58-7.22-6.6-8.14-9.48-13.25-4.76-8.43-2.58-16.64-4.05-16.77s-.95,8.63-7.28,17.3c-2.63,3.6-4.79,4.91-8,10.3a33.1,33.1,0,0,0-3.84,7.84c-3,10.92,5.66,18.48,2.94,22.28-3.37,4.69-22.12.08-38.33-10.81-18.24-12.25-22-24.85-26.61-23.35-7.94,2.58-11.57,44,8.7,60.82,16.92,14.05,46.72.74,56.05,15.41.75,1.17,3,4.73,2.05,8.43-1.71,6.52-12.54,9.92-16.78,11.24C466.12,246.69,464.47,246.41,464.29,247.29Z"/><path class="cls-11" d="M492.81,127.3c-.05-.35,10,.52,15.92-5.55,4.43-4.57,2.25-8.68,6.66-12.59,5.89-5.22,16.05-3.43,16.28-2.22.13.72-3.23.88-5.55,4.07-1.7,2.34-.8,3.5-2.59,6.67-.65,1.14-2.24,3.95-5.18,5.18-2.43,1-3.25-.1-7,.21-4.06.34-4.58,1.8-10,3.22C496.62,127.55,492.85,127.51,492.81,127.3Z"/></svg>