<svg id="Capa_1" data-name="Capa 1" xmlns="http://www.w3.org/2000/svg" viewBox="0 0 390.58 382.56"><defs><style>.cls-1{fill:#65c8d0;}.cls-1,.cls-2,.cls-9{stroke:#65c8d0;}.cls-1,.cls-2,.cls-3,.cls-5,.cls-9{stroke-miterlimit:10;}.cls-2{fill:#a0dbff;}.cls-3,.cls-7{fill:#fbb03b;}.cls-3{stroke:#fbb03b;}.cls-4{fill:#f7931e;}.cls-5{fill:#29abe2;stroke:#29abe2;}.cls-6{fill:#754c24;}.cls-8{fill:#0071bc;}.cls-9{opacity:0.32;}</style></defs><rect class="cls-1" width="390.58" height="382.56"/><path class="cls-2" d="M0,222.16v93C-.43,366.91-2.93,382,0,382.56c8.48,1.7,16.78-127.26,72.18-142.76,31.69-8.86,46.72,28.37,121.91,36.89,44.77,5.08,70.28-4.63,78.47-8.07,22.59-9.51,35.51-22.81,53.86-41.65,25.93-26.64,59.89-61.51,64.16-109.07,1.34-15-1.46-17.66,0-49.73.4-8.86.47-23.28.8-52.13.13-11.17.11-12.33-.8-12.83C377-4.32,293.05,206,198.9,203.71,135.25,202.2,108,104.53,60.15,117.9,27.81,126.93,1.36,182.42,0,222.16Z"/><path class="cls-3" d="M171.06,79.64c-26.51,17.81-23.58,53.83-16.52,71.12,4.1,10,9.14,22.34,19.14,25.85,2.52.89,8.25,2.23,11.38,7.25.32.51,1.6,2.65,2.13,7.47,1.18,10.68-3.62,14.35-1.26,18.06,3.8,6,19.82,5.24,23.14-.83,1-1.8.16-2.8-.35-12.29-.32-6-.46-9,.18-10.49,2.64-6.08,11.39-4.95,19.54-9.3,8.65-4.61,12.25-13.07,16.09-22.1,2.71-6.38,17.5-41.15-4.05-65.65C223.87,69.85,192.86,65,171.06,79.64Z"/><path class="cls-4" d="M179.45,183.31c.45-.17,1.37.9,1.91,1.43,2.34,2.32,5.95,2.75,10.23,3.27a26.39,26.39,0,0,0,12.13-.82c4.35-1.49,6.61-3.93,6.94-3.64s-2.06,3.34-5.64,5.78c-2.36,1.62-5.47,3.74-9.94,4.12-7.15.6-14.27-3.59-15.53-7.59C179.37,185.29,178.94,183.51,179.45,183.31Z"/><path class="cls-5" d="M125.69,361.21c3.35,1.26,7.1,2.17,8.9,5.61,1.26,2.42,1.25,5.34.76,8.23a13.44,13.44,0,0,1,.43,4.35,31,31,0,0,1-.39,3.46l.14,0c1.32.39,2.64.71,4,1l1-.14c8.69-1,17.76.24,26.51,0,4.09-.09,8.17-.06,12.25,0,7.2-.11,14.39-.26,21.59-.27,2.13,0,4.25.05,6.38.11,3.82-.22,7.65-.46,11.48-.59,8.31-.28,16.55,1,24.84.67,6.25-.25,12.29-.44,18.43-.09a330.25,330.25,0,0,1,33.74-.79c7.3.26,14.62.64,21.95,1.07,4.25-.25,8.5-.46,12.76-.58,3.12-7.35,3.32-22.31-8.71-69.57-16.07-63.1-25.38-71.24-30-74.85-13.87-11-21.7-6.49-46.13-20.64-9.1-5.28-19.76-7.23-29.57-11,0,0-5.36-2.07-6-.73-.11.22,0,.56-.15,1.3a3.49,3.49,0,0,1-.43,1,9.13,9.13,0,0,1-3,2.8,12,12,0,0,1-2.6,1.11,23.87,23.87,0,0,1-6.18,1.07,18.41,18.41,0,0,1-5.7-.25c-3.89-.93-6-3.18-6.52-4.15a6.19,6.19,0,0,1-.58-1.69,4.61,4.61,0,0,1,0-1.07l-4.93,1.54c-16.84,5.29-28.07,12.51-35.72,17-28.34,16.71-27,12.3-34.13,18.54a50.94,50.94,0,0,0-13.7,19.41c0,.14,0,.27,0,.42-1.07,19.93-1,39.88-.77,59.83.41,1.4.82,2.79,1.22,4.19,3.7,8.43,7.82,16.64,14.08,23.42,1.29,1.4,2.63,2.76,4,4.12,1.29.94,2.55,1.94,3.78,3A72.07,72.07,0,0,0,125.69,361.21Z"/><path class="cls-6" d="M174.13,177.39c-.41,1-12.33-2.1-24.35-9.17-13.76-8.1-15.95-14.1-16.41-15.62a38,38,0,0,1-1.16-8.57c-.14-4.67.65-5.41.39-8.36-.47-5.34-3.38-6.57-5.44-11.85-2.23-5.7-1.43-10.92-.78-15.16a39.21,39.21,0,0,1,15.74-25.45,29.73,29.73,0,0,1-1-14.38c2.21-12,11.42-18.47,13.8-20,7.16-4.68,14.26-5,20.4-5.25a42.22,42.22,0,0,1,7.3.31c7,1,9.63,2.52,16.37,3.45a65,65,0,0,0,8.89.46c14.57-.25,17.67-6.72,27.91-6.58,8.11.12,17.51,4.36,22,11.52a35.4,35.4,0,0,1,5.12,17.91c0,1.71-.82,4.52.77,6.91,1.46,2.22,3.88,2.65,5.72,3.37,6.75,2.64,9.82,10.7,10.88,13.5,4.7,12.42-3.83,24.81-4.64,26a48.19,48.19,0,0,1,2.69,22.54c-1.88,11.91-13.18,22-23.21,26.23-5.2,2.22-6.63,1.42-18.32,5.73-3.65,1.35-7.93,3-8.26,2.41s5.78-3.17,10.14-9.85c1.38-2.12,2.4-4.43,4.15-9.17,1.13-3.06,3-8.11,3.71-10.64,4.65-16.26-4.29-45.31-12.38-47.55-.44-.12-2.83-.7-6.11-1.8-1.54-.51-3.33-1.17-5.33-2A28.83,28.83,0,0,1,217,93c-7.68-5.56-7.79-10.16-12.63-10.87-7-1-8.79,8.27-20.4,10.93-7.65,1.75-12-1.11-15.16,2.29-2.56,2.75-1.27,6.32-1.47,11.75a23.07,23.07,0,0,1-1,6.38c-2.9,8.92-6.82,11.82-9.82,19.48-4.7,12,.37,24.19,1.21,26.21a35.21,35.21,0,0,0,7.17,11.11C169.77,175.28,174.39,176.79,174.13,177.39Z"/><path class="cls-7" d="M199.39,164.64a10.35,10.35,0,0,1,1.32.07c.44,0,.87.08,1.3.14,2-13.74,2.53-24.43-.15-25.77a5.25,5.25,0,0,1-1.05-.67,6.74,6.74,0,0,1-.84-.85c-.39-.1-.78-.18-1.16-.26a6,6,0,0,1-3.34,2.17c2.26,3.17.89,9.2-3.91,9.07a4.47,4.47,0,0,1-3.79-2.11c-.57,2-1.31,4.17-2.17,6.5a4.69,4.69,0,0,1,5.85.7l0,0c.06.07.14.12.21.19a4.57,4.57,0,0,1,.42.54.25.25,0,0,0,0,.07,3.62,3.62,0,0,1,.24.43,6.68,6.68,0,0,1,.66,4.56c-.44,2.26-.17,5.45-.21,8.09a5.31,5.31,0,0,1-5.14,5.35,5.39,5.39,0,0,1-4.89-5.63c0-1,0-2,0-3-.64,2.14-1.63,5.43-2.89,9.44-4.52,14.31-7.16,22.59-11.74,32.07-1.73,3.58-3.22,6.2-6.21,11.43-8.44,14.79-16,25.22-17.47,27.71-10.56,17.78-40.71,68.55-27.15,93.74,1.1,2,4.76,8.18,10.9,9.76,10.61,2.73,21.56-9.87,26.33-15.5,19-22.41,21.24-48.29,33.53-99.13,1.57-6,3-12.4,4.36-19a337.69,337.69,0,0,0,5.44-39C198,173.93,198.06,164.82,199.39,164.64Z"/><path class="cls-4" d="M210.63,117.05c.28.17.7.46.7.46l-.7-.46c-1.52-.89-2.61-.13-3.08-.73s.51-1.64,1-4.79a9.59,9.59,0,0,0,0-2.81,3.49,3.49,0,0,0-.31-1.23c-.09,0,0,.89,0,2.52a12,12,0,0,1-.11,1.37c-.08.53-.17.92-.2,1.06-.48,2-.77,3.3-.29,3.88S209.11,116.17,210.63,117.05Z"/><path class="cls-4" d="M213.86,123.84a9.39,9.39,0,0,0-.88-4.18A9.89,9.89,0,0,1,213.86,123.84Z"/><path class="cls-4" d="M208.34,147.52c.06-.18.62-2,.61-2s-.36,1.15-.41,1.29c-1.09,3.49-3.42,8.38-5.22,13.84C205,155.76,207.08,151.66,208.34,147.52Z"/><path class="cls-4" d="M202.08,164.86c.36-1.45.78-2.87,1.24-4.25-.47,1.35-.91,2.76-1.28,4.24Z"/><path class="cls-4" d="M189.12,226.54c-7.05,27.57-16.65,61.34-25.4,82.62a75.26,75.26,0,0,1-20.35,27.41c-2.53,2.08-12.59,9.59-19.39,7.12-5.66-2.06-8.29-8.63-8.33-8.6s4.88,11.7,13.66,13.49c5.51,1.12,10.32-2.11,14.86-5.25,2.63-1.82,10.67-7.75,19.22-23a118.36,118.36,0,0,0,11.93-31.06c5.57-23.92,10.14-41.41,14-60.1.15-.77.31-1.51.46-2.26A4.17,4.17,0,0,1,189.12,226.54Z"/><path class="cls-4" d="M212.1,133.41c-1.53,6-2.51,9.79-3.15,12.07C209.6,143.28,210.53,139.61,212.1,133.41Z"/><path class="cls-4" d="M213.56,121.28c-.67-.26-2.27,3-3.63,5.76-2.86,5.82-3.34,8.52-5.21,12.78-1,2.35-1.08,2-2,4.08A55,55,0,0,0,200,152c-3.44,13.94-7.17,44.7-7.17,44.7-1.44,11.79-1.76,6.91-9.58,45-2,9.91-6.87,33.45-6.27,33.62.86.24,10.08-30.59,16.49-66.3,1.7-9.51,2.89-17.56,3.68-23.4A107.79,107.79,0,0,1,201,166.39s.4-1.24,3.06-7.73a1.39,1.39,0,0,1,.1-.21h0l.16-.34a137.75,137.75,0,0,0,7.8-24.7C212.58,131.24,214.66,121.69,213.56,121.28Z"/><path class="cls-4" d="M211.33,117.51c0,.07.54.49,1,1.11.2.25.4.56,0-.07,0,0-.61-1-1-1Z"/><path class="cls-4" d="M206.87,104.22c0-.35-1.65-1.24-3.22-.68a2.72,2.72,0,0,0-.6.34,6.76,6.76,0,0,0-2.08,3c-1.42,3.13-2.15,4.13-1.85,4.66l-.63-.24s-5.42-2-5.6-2.18h0a71,71,0,0,0-9.7-4.69c-3.14-1.26-5.51-2.16-6.43-1.06s-.07,3.85,1,5.52c.57.9,1,1.18,2.85,2.72,4.47,3.69,5.5,5,8.1,5.79.23.08.44.13.64.18-.41.09-.77.48-1.56,2.42-.24.57-.53,1.33-.83,2.25h0a10.73,10.73,0,0,1-1.41,4.64c-.67,1.39-.83,1.17-1.52,2.6a16.88,16.88,0,0,0-1.65,6.36c0,.45,0,.29,0,1.66h0c0,2.79-.19,4.86-.21,5.22-.07,1.42-.33,7.91-1,26.58A199.47,199.47,0,0,1,171.71,197c-7.94,18.64-19,35.24-22.77,40.91-1.59,2.41-6.09,9.12-11.29,18.67-1.58,2.89-2.37,4.33-2.35,4.35.4.32,33.58-38.94,45.83-91.58a191.81,191.81,0,0,0,4.48-29.53,3.8,3.8,0,0,1-1.73-3.41,3.37,3.37,0,0,1,.61-1.56,5.87,5.87,0,0,1,1.9-4.78,4.06,4.06,0,0,1,2.35-.79,4.45,4.45,0,0,1,2.21.84l0,0c.23-.77-2.57-1.72-2.83-3.49a3.41,3.41,0,0,1,1.41-2.81,4.1,4.1,0,0,1,3.66-.44c-1.57-.44-2.44-.43-2.8-1.25-.55-1.25.49-3.58,2-4.17a3.76,3.76,0,0,1,2.87.25c-1.26-.78-1.67-1.06-2.46-1.54-4.15-2.59-6.63-3.29-9.9-5.71a29.41,29.41,0,0,1-4.11-3.71,4.5,4.5,0,0,1-.86-2.39c0-.64-.06-1,.1-1.19.5-.68,2.2-.11,7.15,2.24,4.08,1.93,6.58,3.27,7.33,3.67,1.31.71,1.63.91,3,1.66,7.33,4,10.08,5,10.12,5s-4.59-1.85-4.69-4.52c0-.6.21-.5.92-2.71s1.15-3.39,1.53-3.8C204.68,103.71,206.82,104.6,206.87,104.22Z"/><path class="cls-8" d="M117.19,302.69c.16.33-1.55,1.44-3.82,3.26a31.72,31.72,0,0,0-2.86,3.09,18.46,18.46,0,0,0-3.67,8.72,14.73,14.73,0,0,1,3.67-8.72c.12-.14.49-.53,2.86-3.09l1.41-1.52s.64-.5.6-.73-1.61-.22-3.44-.26c-.63,0-1.87-.15-4.36-.39a28,28,0,0,1-3.5-.43,14.93,14.93,0,0,1,3.31,0c1.4.12,1.62.25,3.3.4a21,21,0,0,0,2.7.13C115.77,303.09,117.05,302.42,117.19,302.69Z"/><path class="cls-8" d="M134.59,366.82c1.42,3.12.54,5.6-.58,12.09,0,0-.25,1.41-.58,3.8a5.17,5.17,0,0,1,2.1.19c1.33.39,2.66.72,4,1l1-.14.54-.05c2.33-13.3-1-26.67-4-26.92-1.61-.14-3.89,3.5-3.7,6.6A8.37,8.37,0,0,0,134.59,366.82Z"/><path class="cls-8" d="M184,253.28c-.67,3.87-1.53,8-2.62,12.19-.49,1.88-1,3.7-1.52,5.48q-1.41,5.73-3,11.63c-2.65,9.68-5.52,18.88-8.52,27.6l-.08.28s-6.4,15.23-16.78,26.46a49.34,49.34,0,0,1-7.33,6.41c-4.48,3.21-7.17,5.1-11.18,5.38a16.82,16.82,0,0,1-11.54-4.08c-3.86-3.57-4.45-8.21-5-8s-.73,4.52,1.6,8.3c3.07,5,8.49,5.65,8.19,7.92-.17,1.28-2,2.2-3.44,2.38-3.68.48-6.68-4.52-7.4-4-.18.14,0,.52.71,3.24a22.79,22.79,0,0,0,.8,2.81c.6,1.2,1.7,1.94,4.66,3.11a55.47,55.47,0,0,0,7.37,2.33,8.39,8.39,0,0,1,4.58,2.69,8.26,8.26,0,0,1,1.66,3.08,8.49,8.49,0,0,1,1.25-6.81h0a9.85,9.85,0,0,1,4-6.15,9.24,9.24,0,0,1,4.05-1.45,46.83,46.83,0,0,0,7.25-5.38c5-4.58,7.92-9.47,13.46-19,5.65-9.79,8.48-14.69,8.62-15,7.87-15.84,9.6-30.46,11.62-49.52,1.07-10,1.45-18.73,1.56-25.54Q185.5,246.47,184,253.28Z"/><path class="cls-8" d="M285.51,323.24c1.5,9.08,2.87,15.87,2.87,15.87C287.3,333,286.5,328,285.51,323.24Z"/><path class="cls-8" d="M293,362.69c-1.26-6.15-2.37-12-4.58-23.58,2.71,15.39,5.61,29,7.87,39.06C295.19,373.29,294,367.91,293,362.69Z"/><path class="cls-8" d="M297.34,382.9c-.35-1.47-.71-3-1.09-4.73.36,1.65.71,3.23,1.05,4.73Z"/><path class="cls-8" d="M281.15,307.48a118.91,118.91,0,0,1,4.36,15.76c-1.33-8-2.75-17.71-3.46-26.15a35.73,35.73,0,0,1,.19-8.63c.91-6.06,3.23-10.24,3-10.35s-2.12,3.06-3.77,7.2c-1.87,4.69-1.87,6.75-2.55,6.8-2.34.2-5.74-23.58-6.33-23.49-.38.05-.06,10,3.16,22.59C277.57,298.39,279.22,302,281.15,307.48Z"/><rect class="cls-9" width="390.58" height="382.56"/></svg>