<svg id="Capa_1" data-name="Capa 1" xmlns="http://www.w3.org/2000/svg" viewBox="0 0 275.1 421.02"><defs><style>.cls-1{fill:#66b4c4;}.cls-2{fill:#5c9154;}.cls-3{fill:#79b078;}.cls-4{fill:#010045;stroke:#010045;}.cls-10,.cls-12,.cls-15,.cls-16,.cls-4,.cls-5,.cls-7,.cls-8{stroke-miterlimit:10;}.cls-5{fill:#e48d00;stroke:#e48d00;}.cls-6,.cls-7{fill:#4e8dcb;}.cls-10,.cls-7{stroke:#4e8dcb;}.cls-8,.cls-9{fill:#e47700;}.cls-8{stroke:#e47700;}.cls-10,.cls-15,.cls-16{fill:none;}.cls-11,.cls-12{fill:#369;}.cls-12{stroke:#369;}.cls-12,.cls-16{stroke-width:0.25px;}.cls-13{fill:#122f4c;}.cls-14{fill:#112334;}.cls-15,.cls-16{stroke:#5c3900;}.cls-17{fill:#5c3900;}.cls-18{fill:#eaa829;}</style></defs><g id="fondo"><path class="cls-1" d="M490.89,410.37c0-10.28-.48-20.53.19-30.76V97.16H218.45V517.58H491.07V411.77A5.58,5.58,0,0,1,490.89,410.37Z" transform="translate(-217.54 -97.16)"/><path class="cls-2" d="M492.34,348.65a13.93,13.93,0,0,0-.91-4.34c-2.05-5.32-7.21-8.64-16-12-8.16-3.15-16.85-6.69-27-6.74-31.39-.17-36.31,27.81-58.41,25-22.49-2.89-24.11-32.72-64.73-73.32-22.2-22.19-38.77-38.74-59.77-35.2-21.89,3.69-41,27.91-46.88,51.86-.2.81-.36,1.54-.5,2.24q.26,68.07.5,136.15,14.27,1.89,28.59,3.69,124.49,15.61,245,23.35C492.31,447.51,493,361,492.34,348.65Z" transform="translate(-217.54 -97.16)"/><path class="cls-3" d="M490.88,518c2.16-24.76,1.47-49.77,1.34-74.65q-.54-2.28-1.14-4.47c-2.68-9.88-15.38-56.62-42.23-64.45C409.55,363,380.51,446.72,345,435.25c-28.19-9.09-23-65.95-58.15-81.37-23.53-10.31-52.52,3.45-68.35,24.57-.16.21-.3.44-.46.65.05,6.31.12,16.21.19,28.35.29,45.2.26,54.61.24,59.47-.06,11.85-.25,29.18-.89,50.49Z" transform="translate(-217.54 -97.16)"/></g><g id="estacosa"><path class="cls-4" d="M344,155c-3,.3-9.22.95-14.21,5.16-.33.28-.77.68-1.49,1.41-7.92,8.13-11.74,19.22-12.05,20.14-2,6.11-3.43,10.65-2.36,16.27.47,2.46.85,2.16,1.8,5.92,1.25,4.95,2.34,9.23,1.54,13.38-1.33,7-6.67,6.74-9.78,16.21a18.38,18.38,0,0,0-1.29,7.72c.41,5.17,3.16,6.33,2.83,10.55-.08,1.08-1.16,3.51-3.6,8.23a47.85,47.85,0,0,0-3.35,7.2,22,22,0,0,0-1,7.2c.09,2.87.71,2.86.77,5.66.08,3.6-.94,3.87-.74,7.12a20,20,0,0,0,1.51,6c.5,1.39.92,1.79,1.61,3.65.82,2.2.93,3.22,1.22,3.21s.52-2.35,1.28-7.12c.18-1.11.49-2.18.77-4.37a42,42,0,0,1,1.54-7.72,19.79,19.79,0,0,1,4.89-8,29.2,29.2,0,0,1,5.4-3.6c6.58-3.87,9.86-5.81,12.61-6.43a25.41,25.41,0,0,0,6.53-2.29,6.44,6.44,0,0,0,2.63-2.17,6.63,6.63,0,0,0,.93-3.1,18.12,18.12,0,0,0-.31-5.31h0v0c-.55-3.2-.69-4.92-1.24-9.81-.22-1.94-.24-2.57-.45-4.61a18.59,18.59,0,0,0-1-5.31,13.14,13.14,0,0,0-1.48-2.79,17.66,17.66,0,0,0-3.43-3.43c-1.82-1.68-2.8-3.27-4.76-6.46a26.86,26.86,0,0,1-2.57-4.89,16.63,16.63,0,0,1-1.29-5.4c-.06-1.43.16-2.22,2.11-8.35a70.61,70.61,0,0,0,2-6.83,22.37,22.37,0,0,0,.68-5.53c-.07-2.34-.56-2.42-.79-5.13a17.89,17.89,0,0,1,.62-6.58c2-6.45,8-9,9.78-9.78a3.09,3.09,0,0,1,2.57-.26c1.18.61.84,2.65,1,4.89a19.77,19.77,0,0,0,3.09,8.49c1.61,2.82,3.39,4.43,6.18,7a56.6,56.6,0,0,0,8.32,6.1c.52.33,3.18,2,6.6,3.77,2,1.06,2.24,1.06,4.53,2.26a12.42,12.42,0,0,0,2.74,1.32c1.08.29,1.83.25,2.26.85a1.92,1.92,0,0,1,.25,1.39,50,50,0,0,1-2.83,10l-.44,1.09a19.34,19.34,0,0,1-2,3.58c-1.23,1.83-1.51,1.81-2.39,3.12a19.78,19.78,0,0,0-2,4.13c-1,2.82-.53,4.8-.23,10.84.37,7.51-.13,8.82,1.14,12a21.54,21.54,0,0,0,2.57,4.63c4,5.52,9.64,8.29,19.81,13.12a56.5,56.5,0,0,1,7.2,3.86,34.13,34.13,0,0,1,6.69,5.4,14.62,14.62,0,0,1,2.32,2.83c1.85,3.29,1.17,6.4,1.56,6.45s1.77-4.27,2-9.79c.17-3.46.41-7.21-1-11.58-2-6.21-4.55-6.55-5.92-12.61-.69-3,0-2.62-.77-6.69a31.21,31.21,0,0,0-4.37-11.84c-1.86-2.82-2.44-2.44-4.37-5.4a33.17,33.17,0,0,1-3.86-9c-1.9-7.57,1.13-11.9,1.63-19.47.05-.7.77-14.8-8.32-25.31-5.44-6.29-12.45-9.12-19.56-11.84a51.5,51.5,0,0,0-10-2.83A38.48,38.48,0,0,0,344,155Z" transform="translate(-217.54 -97.16)"/><path class="cls-4" d="M345.82,202.46" transform="translate(-217.54 -97.16)"/><path class="cls-5" d="M376.89,256.75c-.27-.59-.61-.84-1.43-1.59a43.61,43.61,0,0,1-5.24-5.68,16.51,16.51,0,0,1-2.41-5.81A32.89,32.89,0,0,1,367,237a61,61,0,0,1-.14-6.12c.18-5.38.19-8.07,1.34-10.93s1.63-1.61,4.34-6.46a37.34,37.34,0,0,0,3.74-10.29.26.26,0,0,1,0-.07s.27-1.72.34-2.94-6.1-4.45-14.89-7.69a44.6,44.6,0,0,1-10.62-8c-2.59-2.64-5.29-5.4-7.06-10a24.15,24.15,0,0,1-1.58-9.71,17.44,17.44,0,0,0-3.94,1.6c-1.35.75-5.76,3.19-7.42,7.95-.82,2.35-.72,4.55-.54,8.79.08,1.75.18,1.79.23,3,.23,5.52-1.74,10.68-3.52,15.32a21.84,21.84,0,0,0-1.3,6.32v.2c-.05,4.64,4.28,10.41,4.28,10.41,5,6.62,7.89,7.86,9.32,12a29.44,29.44,0,0,1,1.07,4.21c.23,1.39.17,1.73.4,4.94.18,2.57.28,4,.51,5.77.33,2.65.52,2.93.65,4.55a23.33,23.33,0,0,1-.21,5.42,9,9,0,0,1-1.13,2.44c-1.18,1.76-2.22,1.87-2.43,2.83-.27,1.26,1.24,2.54,4,4.83a22.19,22.19,0,0,0,6.09,3.88c2,.75,3.92,1.49,4.93.62l.11-.1c.9-.86.95-1.81,1.41-3.68a14.48,14.48,0,0,1,.55-1.9c.38-.94.82-2.06,1.42-2.1s1.29,1,1.7,2.48c.08,1,.17,1.24.25,1.25s0-1.74,1.16-3c.27-.31.56-.64.93-.61.16,0,.68.11,1.66,2.85.54,1.52.46,1.71.87,2.69.62,1.47,1,2.4,1.76,2.74.35.16,1.47.45,6-3.52,1.75-1.53,3.09-2.89,3.95-3.8C376.53,261.32,377.82,258.75,376.89,256.75Z" transform="translate(-217.54 -97.16)"/><path class="cls-4" d="M369,246.3" transform="translate(-217.54 -97.16)"/><path class="cls-4" d="M297.25,222.89" transform="translate(-217.54 -97.16)"/><path class="cls-6" d="M403.57,373.08a4.88,4.88,0,0,1-.71-3.34c-.41-2.73-.67-6-.67-6-.37-4.83-.21-5.08,0-5.25,1.54-1.27,5,2.5,8.75,1.17a6.15,6.15,0,0,0,2.71-2.09c2.89-3.43,3.45-9.2,3.23-19A141.35,141.35,0,0,0,415,316.69c-1.38-8.74-2.42-10.7-3-16.32-.12-1.22-.66-5.88-1.89-12h0c-1-7.18-1-8.29-1.91-10.43-2.09-5-5.88-7.83-8.18-9.55-6.3-4.71-13.87-6.91-18.16-9.15a31.91,31.91,0,0,1-3-1.82A11.49,11.49,0,0,1,377,256a4.13,4.13,0,0,0-.51-.48,2,2,0,0,0,.13.25,3,3,0,0,1,.21.62,9.4,9.4,0,0,1,.26,1.77,9.77,9.77,0,0,1-1,3.5,6.32,6.32,0,0,1-.48,1,17.55,17.55,0,0,1-5.07,5.19h0c-3,2.22-3.85,1.66-5.28,3.21l0,0c-.84,1,.39,3.1,1.35,5.34a35.14,35.14,0,0,1,2,6.36c.68,2.75.25,2.88,1,4.85a18.94,18.94,0,0,0,2,3.83c1.52,2.4,2.28,3.59,2.66,3.84a3.76,3.76,0,0,1,1.75,2s0,0,0,.08c.2,1.12-.78,2.34-1.64,3.29a16.44,16.44,0,0,1-4.13,3.77c-1.89,1.1-2.64.89-2.88.82a2.71,2.71,0,0,1-1.48-1.48s-.44-1.7-.81-2.83c-.1-.31-.18-.48-.29-.82a12.15,12.15,0,0,1-.5-2.33c-.2-1.41-.65-1.56-1.79-4.72-.47-1.32-.41-1.33-1-2.92-.46-1.27-.65-1.67-1.07-2.77-1.39-3.6-1.52-4.92-2-4.92s-.73,1.21-1.21,3.1a50.75,50.75,0,0,0-.94,5.13c-.52,3.18-.6,3.3-.67,4.32-.06.77-.07,1.34-.07,1.45a27.75,27.75,0,0,1-.63,3c-.23,1.6.33,1.93.37,5,0,1.25-.07,1.39-.18,1.48-.81.66-2.66-1.78-7.11-4.17a6.37,6.37,0,0,1-3.16-3.15,2.23,2.23,0,0,1-.09-.33c-.58-2.77,3.56-4.7,4.59-9,.19-.82,0-.54.34-3.16.3-2.32.65-4,.79-4.7.39-1.95,1-5.09,1.84-10.4a20.93,20.93,0,0,1-6.51-2.53c-.08-.05-1.13-.81-3.22-2.34,0,0-3.92-2.86-4.49-4.73a1.84,1.84,0,0,1-.09-.73,2.9,2.9,0,0,1,.86-1.53c0-.05-1.16,1-2.13,1.7a12.24,12.24,0,0,1-3.51,1.72,94.67,94.67,0,0,0-10.77,4.89,50.88,50.88,0,0,0-4.67,2.73l-.35.23a23.53,23.53,0,0,0-4.85,3.93,17.42,17.42,0,0,0-3.3,5.77,66.16,66.16,0,0,0-3.25,15.41c-2.08,10.7-1.69,10.48-3.92,22.76-1.92,10.54-3,14.55-3.17,21.69a45.61,45.61,0,0,0,1,11.7,86.5,86.5,0,0,0,3.17,9c3.27,8.62,4.13,9.94,5.52,10.24.83.18,2.48-.72,5.74-2.51,2.26-1.24,3.61-2.11,6.13-3.5,4.8-2.66,5.46-2.59,5.84-2.33.83.57.57,2.33,0,5.84-.36,2.21-.61,3.3-.76,3.95-1.49,6.54-2.23,9.8-2.6,10.47l-.05.11c-.06.2-.11.41-.17.61a1.56,1.56,0,0,0,0,.37c.25,1.52,2.95,2.36,6.21,3a64.08,64.08,0,0,0,10.78,1.28c6.21.24,10,.09,13.26.26a31.43,31.43,0,0,0,6,0c9-.67,23.93-4.38,23.93-4.38,12.12-2.91,5.18-1.66,10.84-3,0,0,8.74-2,9.84-4.7a4,4,0,0,0,.31-1.44,7.18,7.18,0,0,0-.26-1.52C403.63,373.33,403.6,373.2,403.57,373.08Z" transform="translate(-217.54 -97.16)"/><path class="cls-7" d="M415.09,251.53" transform="translate(-217.54 -97.16)"/><path class="cls-5" d="M374.27,295.24c-1.82-2.4-2.15-2.38-3-3.71a17.68,17.68,0,0,1-2.18-5.52c-.48-1.83-.22-1.66-.73-3.48s-.88-2.37-1.6-4.79c-.27-.93-.46-1.69-.73-2.76-.83-3.38-.71-3.69-1.21-4.83-.95-2.18-1.82-1.76-2.56-3.88s-.55-3.9-1.23-4-1.22,1-1.32,1.16c-.75,1.23-.52,2.4-.77,2.44-.46.08-1.24-3.83-1.95-3.72-.39.06-.42,1.05-1.21,3-.15.36-.29.69-1.06,2.24-2,4-2.15,4-2.53,5-.56,1.35-.27,1.62-.95,5.78-.48,2.91-.91,5.56-1.6,8.91-.88,4.25-1.2,4.94-1.57,5.53a8.24,8.24,0,0,1-.49.69c-.13.3-.25.61-.4.9a7,7,0,0,1-2.18,2.47l0,.12a2.35,2.35,0,0,0,.1.94,16.43,16.43,0,0,0,5.67,5.42c1,.58,2,1.08,3,1.58,0-.2,0-.39,0-.59a4.67,4.67,0,0,1-.08-1.28,6.34,6.34,0,0,1,.74-2.51c.12-1,.29-2.19.56-3.56.53-2.65.77-2.65,1.19-5.22.27-1.64.47-3.45,1.09-6,.71-2.93,1.05-3.08,1.21-3.1.95-.13,2.15,3.16,3,5.62,1.1,3,.86,3.27,2,6.53,1.34,3.71,1.62,3.28,2,5.23.28,1.3.35,2.39.61,3.19l0,.09a1.89,1.89,0,0,0,.82,1.07,2.91,2.91,0,0,0,1.89.15c1.13-.16,1.91-.73,3.34-2,2.57-2.34,3.85-3.54,3.76-4.54C376,297.17,375.62,297,374.27,295.24Z" transform="translate(-217.54 -97.16)"/><path class="cls-8" d="M340.46,233.58a8.69,8.69,0,0,0,1.08,1.13c1.33,1.17,3.24,2.12,10.61,2,5.59,0,7.44-.62,8.41-1a13.29,13.29,0,0,0,4.17-2.32c1.44-1.19,2-2.19,2.11-2.11s-1.87,6.64-6.92,9.19c-2.9,1.46-5.56,1-10.71.16-3.51-.58-4.87-1.42-5.82-2.27A10.62,10.62,0,0,1,340.46,233.58Z" transform="translate(-217.54 -97.16)"/><path class="cls-9" d="M354.93,264.61c.81-1.75,2.29-4.25,2.79-4.05.18.07.18.45,0,5.29V266c0,.85-.12,2.72-.24,4.22-.22,2.78-.41,2.58-.47,4.34a19.14,19.14,0,0,0,.12,3.5c.25,2.35-.77,6-1.91,12.54-.69,4-1,6-1.11,6.66a22.59,22.59,0,0,1-1.89,7.3,5.79,5.79,0,0,1,1.15.57,6.48,6.48,0,0,1,1.1.87c0-.27.2-1.18.23-1.82,0-.19,0-.42,0-.42,0-.3,0-.51,0-.78a19.29,19.29,0,0,1,.27-2.52,47.83,47.83,0,0,1,.84-4.76c.29-1.18.36-1.18.61-2.27.18-.82.19-1.05.5-3,.24-1.49.41-2.46.61-3.45a16.8,16.8,0,0,1,.5-2.11c.36-1,.55-1.06.53-1.54,0-.74-.49-1.14-.41-2.12a2.69,2.69,0,0,1,.07-.42,56.57,56.57,0,0,0,.41-6.58c.06-2.78-.05-5-.12-7-.22-6.76-.4-7.07-.62-7.14-1.38-.4-5.43,10.41-5.4,10.42l.05-.12C353.28,268.84,354.11,266.36,354.93,264.61Z" transform="translate(-217.54 -97.16)"/><path class="cls-9" d="M363.92,266.91c.93,2,1.62,3.68,1.62,3.68S364.85,268.91,363.92,266.91Z" transform="translate(-217.54 -97.16)"/><path class="cls-9" d="M372.57,302.61a3,3,0,0,1-1.65.05,3.77,3.77,0,0,1-2.36-2.67l-.42-.6s-7.09-10.31-7.93-18.55c-.09-.9-.09-1.65-.09-1.65a17.82,17.82,0,0,0-.07-3.08c-.46-4.73-1.32-7.61-1.09-12.43.14-2.89.53-3.06.65-3.1.77-.23,2.11,1.93,3.32,4.31-1.29-2.53-2.73-4.9-3.54-4.65-.37.11-.48.72-.56,1.18-.87,5.25-.45,9.08-.62,13-.14,3.2-.6,4.75.12,7.53.14.54.44,1.31,1,2.86,1.33,3.49,1.81,4,2.71,6.75.37,1.11.44,1.49.88,2.67.58,1.58,1.27,3.14,1.27,3.14a6.5,6.5,0,0,1,.92,2.24c.17.82.09,1.28.29,2.35a11.64,11.64,0,0,0,.48,1.75,3.21,3.21,0,0,0,1.74,1.41,3.05,3.05,0,0,0,1,.13c.82-.36,1.65-.79,2.43-1.08a3.89,3.89,0,0,0,.6-.42A4.22,4.22,0,0,0,372.57,302.61Z" transform="translate(-217.54 -97.16)"/><path class="cls-8" d="M356.42,284.35" transform="translate(-217.54 -97.16)"/><path class="cls-9" d="M360.51,286.16" transform="translate(-217.54 -97.16)"/><path class="cls-10" d="M358.23,296.91a16.63,16.63,0,0,0-1.69.41.77.77,0,0,0-.37.19.7.7,0,0,0-.15.39,65.23,65.23,0,0,0-1.5,11.55" transform="translate(-217.54 -97.16)"/><path class="cls-10" d="M360.83,295a8.91,8.91,0,0,1,4.09,5.07l2.58,6.45" transform="translate(-217.54 -97.16)"/><path class="cls-10" d="M377.59,296.42c-1.62,1.88-2.89,4-4.44,6a27.27,27.27,0,0,1-7.74,6.69" transform="translate(-217.54 -97.16)"/><path class="cls-10" d="M347.55,289c.31,1.7-.54,3.38-1.48,4.8-.38.57-.77,1.13-1.18,1.67a5.15,5.15,0,0,0-.82,1.31c-.06.29-.17,1.22,2,3.29a18.41,18.41,0,0,0,3.23,2.44c2.15,1.31,4.11,2.45,5.8,3.43" transform="translate(-217.54 -97.16)"/><path class="cls-10" d="M377.93,298.11a19.87,19.87,0,0,1-6.42-8.49" transform="translate(-217.54 -97.16)"/><path class="cls-11" d="M352.67,303.86c-.5-.27-.56-.25-.93-.46s-.63-.44-.64-.44a14.23,14.23,0,0,1,1.49,1.23,4.83,4.83,0,0,1,.77.83c.68,1.12-.45,3-.69,3.42-5.15,8.75-9,18.23-13.64,27.24-2.87,5.55-2.72,6.12-5.69,11.46-5,9-7.93,11.89-9.11,13-3.06,2.85-3.5,2.2-7.26,5.73a24,24,0,0,1-5.5,3.68c-.93.43-2.32,1-3.51.44-.58-.27-.94-.73-1-.68a2.83,2.83,0,0,0,1.66,1.58,3.2,3.2,0,0,0,1.82.09,11.79,11.79,0,0,0,4.24-1.83c1.59-1.08,3.88-2.52,5.35-3.35,3.31-1.88,3.68-1.4,5.73-2.93a16.53,16.53,0,0,0,2.59-2.41,50.67,50.67,0,0,0,8.71-14.05c4.42-13.26,11.25-28.63,13.2-32,1-1.74,1.58-3,2.74-5.36.11-.24.24-.5.37-.86a14.88,14.88,0,0,0,.58-1.91s.13-.52.24-.88c0-.12.05-.17.06-.2a.85.85,0,0,0,.06-.17.17.17,0,0,0,0-.07c0-.12-.23-.23-.29-.25-.21-.09-.39-.24-.59-.35-.4-.19-.32-.2-.78-.44" transform="translate(-217.54 -97.16)"/><path class="cls-12" d="M308.34,370.12" transform="translate(-217.54 -97.16)"/><path class="cls-11" d="M405.61,360.07a20,20,0,0,1-3.41-1.61c-2.51-1.57-9.75-9.92-18.43-22.24-8.54-15.78-16.58-30.87-16.19-31.09a2.51,2.51,0,0,0,.64.14,2.62,2.62,0,0,0,1.1-.31c.54-.22.88-.4.89-.39a6.38,6.38,0,0,1-.88.51c-.66.34-.86.36-.95.57s.14.83.24,1c21.72,33.48,22.22,34.12,23.2,35.4.62.81,3.72,4.72,7.73,9.86,0,.05,5.78,7.41,9.63,7.75a5.64,5.64,0,0,0,2.54-.39,4.44,4.44,0,0,0,1.95-1.71s-1.42,2.75-3.95,3.26C408.43,361.05,407.28,360.65,405.61,360.07Z" transform="translate(-217.54 -97.16)"/><path class="cls-11" d="M324.34,321.8a26.88,26.88,0,0,1-2.38,2c-1,1-1.77,1.82-2.4,2.48-1.34,1.42-2.13,2.31-2.85,3.2l-.6.76c-.51.67-.89,1.25-1.42,2-2.77,4-5.19,6.74-5.11,6.8a32.74,32.74,0,0,0,2.66-2.94c3.1-3.64,3.74-4.86,6-7.35,1.65-1.81,1.56-1.44,3.6-3.56a74.66,74.66,0,0,0,6-7.4A26.76,26.76,0,0,1,324.34,321.8Z" transform="translate(-217.54 -97.16)"/><path class="cls-11" d="M327.8,290.77v.06c0,.34.05,2.09-.17,5.34a185.78,185.78,0,0,1-2.9,19,56.31,56.31,0,0,1-1.31,5.6,23.94,23.94,0,0,1-1,2.84c-.13.29-.36.76-.3.79a12,12,0,0,1,1.24-1.51c.56-.5.83-.53,1.05-1a4.49,4.49,0,0,0,.25-1.1c.12-.64.17-.82.21-1.06.69-3.72,1.08-8.13,1.08-8.13.07-3.41.33-1.71,1.05-10.27C327.49,296,327.77,290.77,327.8,290.77Z" transform="translate(-217.54 -97.16)"/><path class="cls-11" d="M408.44,327s-4.19-3.41-9.48-8.54c-2-2-3.18-3.12-6.2-6.05-1.82-1.77-3.12-2.92-3.11-2.94s2.08,2.06,5.14,4.5,2.84,2.09,4.52,3.63a56.51,56.51,0,0,1,5.22,5.42c.26.32.85,1.05,1.74,2A24.59,24.59,0,0,0,408.44,327Z" transform="translate(-217.54 -97.16)"/><path class="cls-11" d="M399.05,317.54A3.76,3.76,0,0,1,397,316c-.1-.21-.2-.47-.2-.47a5.09,5.09,0,0,1-.28-1.57c0-1.34-.29-2.68-.29-4,0-2-.28-4-.42-6-.46-6.68-1.44-14.34-1.36-14.36s.94,7.66,2.65,17.58C397.85,311.56,398.55,315.13,399.05,317.54Z" transform="translate(-217.54 -97.16)"/><path class="cls-11" d="M383.49,274.63" transform="translate(-217.54 -97.16)"/><path class="cls-13" d="M336.15,517.22c12.23-.13,24.46,0,36.68.31q.65-24.39,1.09-49.06.18-10.25.32-20.45,1.69,10.56,3.35,21.19,3.8,24.46,7.25,48.58c6.83.15,13.66.3,20.48.39L415.41,517c.25-20,.81-35.89,1.29-46.84,0,0,1.17-26.81.33-49.42,0-1.18-.12-3.08-.33-5.53a111.87,111.87,0,0,0-3.83-21.56,102.39,102.39,0,0,0-4.2-11.75,3.39,3.39,0,0,1-.45-.76c-.33-.78-.66-1.57-1-2.35l-.08-.21a10.72,10.72,0,0,0-1.56-2.85c-.31-.39-.29-.29-.93-1-.22-.25-.53-.42-.74-.68,0,0-.09-.11-.15-.1s-.08.16-.11.32-.11.37-.15.55a5.74,5.74,0,0,1-1.28,1.64c-10.15,7.75-30.61,10.13-30.61,10.13s-38.33,4.46-46.33-1.84l-.15-.12a8.53,8.53,0,0,0-2.3-1.49c-.24.77-.59,2-1,3.44-3.7,14-3.37,26.54-3.07,35.79.06,1.7.12,3,.15,3.52,1.07,20.34,7.93,45.91,9.42,51.6A338.25,338.25,0,0,1,336.15,517.22Z" transform="translate(-217.54 -97.16)"/><path class="cls-11" d="M361.25,389.69" transform="translate(-217.54 -97.16)"/><path class="cls-11" d="M268,362.77" transform="translate(-217.54 -97.16)"/><path class="cls-11" d="M225.07,356.41" transform="translate(-217.54 -97.16)"/><path class="cls-14" d="M382.11,406.08s-1.36,3.62-3.55,8.25c-3,6.24-3.9,6.68-4.49,6.82-2.35.58-4.89-2.08-8.54-5.89a53.36,53.36,0,0,1-5.81-7.21,32.48,32.48,0,0,0,6.67,8.62c.87.78,2.35,2.34,5.31,5.46a5.09,5.09,0,0,1,1,1.33c.58,1.12.42,2,1,4.91h0l.72,5c0,2.92-.08,5.29-.14,6.94-.14,3.82-.21,5.74-.24,5.92-.22,1.7-.55,3.14-.11,3.33.25.11.73-.22.9-.62a1.8,1.8,0,0,0-.25-1.44c-.33-.69-.29-1.72-.28-3.75a26,26,0,0,1,.4-3.64,46.49,46.49,0,0,0,.34-8.6c-.09-1.39-.18-1.62-.19-2.87a20.24,20.24,0,0,1,.42-4.81,22.82,22.82,0,0,1,1.75-4.41c.44-1,1-2.52,2.22-5.55C381,409.44,382.15,406.09,382.11,406.08Z" transform="translate(-217.54 -97.16)"/><path class="cls-14" d="M373.08,517.53c.41-8.34.74-29.11.69-38.54,0-1,0-3.11.07-6.06.14-9.76.37-17.7.56-23.06.91,4.91,1.24,6.8,1.31,7.35,0,0,0,.22.06.48s.13.88.24,1.49c.24,1.31.47,2,1.28,6.82,1.46,8.71,2.22,15.18,2.51,17.61,1.23,10.26,3.63,27.57,4.8,34.17h.66c-.31-7.53-2.24-29.53-4.95-43.94-2.58-13.73-3.88-20.6-4.31-22.65-.18-.83-.4-1.83-.63-3.14-.11-.62-.23-1.31-.29-1.76a37.22,37.22,0,0,1-.23-6.6c.06-2.57.17-4.1.12-4.1s-.32,2.5-.37,3c-.29,2.85-.94,9.67-1.13,13.07-.51,9-1.14,52.93-.92,65.88Z" transform="translate(-217.54 -97.16)"/><path class="cls-14" d="M313.26,414" transform="translate(-217.54 -97.16)"/><path class="cls-15" d="M366.35,300.71" transform="translate(-217.54 -97.16)"/><path class="cls-16" d="M360.52,325.51q0,1.67.07,7c0-4.34,0-6.16-.06-7Z" transform="translate(-217.54 -97.16)"/><path class="cls-16" d="M360.59,332.49c0,2.22.07,5.4.07,5.4S360.62,334.71,360.59,332.49Z" transform="translate(-217.54 -97.16)"/><path class="cls-17" d="M360.49,324c-.82,0-1-2.43-3.32-5.68a28.26,28.26,0,0,0-2.15-2.49c-2.14-2.33-3.08-3.09-5.13-5.13-5.06-5.05-5.53-6.66-5.68-7.34a14.92,14.92,0,0,1-.28-3.67,15.5,15.5,0,0,1,.37-2.42,11.22,11.22,0,0,0-.83,4.31c.28,4,3.55,7,6.69,10,4.29,4.08,9.49,8.53,10.35,14.75.86-6.64,6.71-11.29,12-14.57,2.43-1.5,6.9-5.4,6.64-8.81a8.85,8.85,0,0,0-1.8-4.63,8.13,8.13,0,0,0-.62-.65,3,3,0,0,0-.3-.25,9.85,9.85,0,0,1,.92.9,5,5,0,0,1,.89,2,10.45,10.45,0,0,1,.61,3.2,7,7,0,0,1-1.48,3.66,9.33,9.33,0,0,1-1.63,1.76,55.61,55.61,0,0,1-5.55,4.09,36.35,36.35,0,0,0-5.12,3.95,15.57,15.57,0,0,0-2,2.22C361.16,321.91,361.24,324,360.49,324Z" transform="translate(-217.54 -97.16)"/><path class="cls-16" d="M348,303.46" transform="translate(-217.54 -97.16)"/><path class="cls-16" d="M348.61,303.59" transform="translate(-217.54 -97.16)"/><path class="cls-15" d="M344.08,296.76" transform="translate(-217.54 -97.16)"/><path class="cls-17" d="M366.87,303.54a15.91,15.91,0,0,1-12.29-.4c0,.05,0,.09,0,.14a17.83,17.83,0,0,0,2.91,1,17,17,0,0,0,3.6.51,15.44,15.44,0,0,0,5.89-1Z" transform="translate(-217.54 -97.16)"/><path class="cls-18" d="M360.55,337.91c-.18.16-.11.47-.05,1,.09.78.14,1.17,0,1.34s-.46.14-1,.07-.9-.2-1.07,0a.25.25,0,0,0-.07.27c.06.14.32.16.75.17,1,0,1.19,0,1.31.1s.11.35,0,1.19c-.24,1.5-.3,1.92-.09,2.06a.43.43,0,0,0,.45,0c.26-.17.21-.58.2-1.72s0-1.31.19-1.43.48-.11,1.16-.1.81,0,1-.14a.39.39,0,0,0,.1-.39c-.09-.14-.37-.08-1.14,0s-1,.09-1.09,0-.16-.56-.15-1.39c0-.58,0-.92-.12-1A.24.24,0,0,0,360.55,337.91Z" transform="translate(-217.54 -97.16)"/></g></svg>