<?xml version="1.0" encoding="utf-8"?>
<!-- Generator: Adobe Illustrator 24.1.3, SVG Export Plug-In . SVG Version: 6.00 Build 0)  -->
<svg version="1.1" id="Capa_1" xmlns="http://www.w3.org/2000/svg" xmlns:xlink="http://www.w3.org/1999/xlink" x="0px" y="0px"
	 viewBox="0 0 275.1 275.1" style="enable-background:new 0 0 275.1 275.1;" xml:space="preserve">
<style type="text/css">
	.st0{clip-path:url(#SVGID_2_);}
	.st1{fill:#66B4C4;}
	.st2{fill:#5C9154;}
	.st3{fill:#79B078;}
	.st4{fill:#010045;stroke:#010045;stroke-miterlimit:10;}
	.st5{fill:#E48D00;stroke:#E48D00;stroke-miterlimit:10;}
	.st6{fill:#4E8DCB;}
	.st7{fill:#E47700;stroke:#E47700;stroke-miterlimit:10;}
	.st8{fill:#E47700;}
	.st9{fill:none;stroke:#4E8DCB;stroke-miterlimit:10;}
	.st10{fill:#336699;}
	.st11{fill:#122F4C;}
	.st12{fill:none;stroke:#5C3900;stroke-width:0.25;stroke-miterlimit:10;}
	.st13{fill:#5C3900;}
	.st14{fill:#EAA829;}
	.st15{opacity:0.3;enable-background:new    ;}
	.st16{fill:#0F65D7;}
</style>
<g>
	<defs>
		<rect id="SVGID_1_" width="274.9" height="275.1"/>
	</defs>
	<clipPath id="SVGID_2_">
		<use xlink:href="#SVGID_1_"  style="overflow:visible;"/>
	</clipPath>
	<g id="fondo" class="st0">
		<path class="st1" d="M274.9,281.5c0-10-0.5-20,0.2-29.9V-23.3H0v409.2h275.1v-103C275,282.5,274.9,282,274.9,281.5z"/>
		<path class="st2" d="M274.8,221.5c-0.1-1.5-0.4-2.9-0.9-4.3c-2.1-5.2-7.2-8.5-16-11.8c-8.2-3.1-16.9-6.6-27.1-6.6
			c-31.5-0.2-36.4,27.2-58.5,24.5c-22.5-2.8-24.2-32.1-64.9-71.8c-22.2-21.7-38.8-38-59.9-34.5c-21.9,3.5-41.1,27.3-47,50.7
			c-0.2,0.8-0.4,1.5-0.5,2.2l0.5,133.4c9.5,1.2,19.1,2.4,28.6,3.6c83.2,10.2,165,17.8,245.5,22.9
			C274.8,318.3,275.5,233.5,274.8,221.5z"/>
		<path class="st3" d="M273.3,386.3c2.2-24.1,1.5-48.4,1.3-72.7c-0.4-1.5-0.7-2.9-1.1-4.4c-2.7-9.6-15.3-55.1-42-62.7
			c-39.1-11.2-68,70.4-103.4,59.2c-28.1-8.8-22.9-64.2-57.9-79.2c-23.4-10-52.3,3.4-68.1,23.9c-0.2,0.2-0.3,0.4-0.5,0.6
			c0,6.1,0.1,15.8,0.2,27.6c0.3,44,0.3,53.2,0.2,57.9C2,348.1,1.9,365,1.2,385.7L273.3,386.3z"/>
	</g>
	<g id="estacosa" class="st0">
		<path class="st4" d="M124.8,31c-3.1,0.3-9.5,1-14.7,5.3c-0.3,0.3-0.8,0.7-1.5,1.5c-8.2,8.4-12.1,19.9-12.4,20.8
			c-2.1,6.3-3.5,11-2.4,16.8c0.5,2.5,0.9,2.2,1.9,6.1c1.3,5.2,2.4,9.5,1.6,13.8c-1.4,7.2-6.9,7-10.1,16.7c-1,2.5-1.5,5.3-1.3,8
			c0.4,5.3,3.3,6.5,2.9,10.9c-0.1,1.1-1.2,3.6-3.7,8.5c-1.4,2.4-2.5,4.9-3.5,7.4c-0.8,2.4-1.1,4.9-1,7.4c0.1,3,0.7,3,0.8,5.8
			c0.1,3.7-1,4-0.8,7.4c0.2,2.1,0.7,4.2,1.6,6.2c0.5,1.4,1,1.8,1.7,3.8c0.8,2.3,1,3.3,1.3,3.3c0.3,0,0.5-2.4,1.3-7.4
			c0.2-1.1,0.5-2.3,0.8-4.5c0.3-2.7,0.8-5.3,1.6-7.9c1-3.1,2.7-6,5.1-8.3c1.7-1.4,3.6-2.7,5.6-3.7c6.8-4,10.2-6,13-6.6
			c2.3-0.5,4.6-1.3,6.7-2.4c1.1-0.5,2-1.3,2.7-2.2c0.6-1,0.9-2.1,1-3.2c0.2-1.8,0.1-3.7-0.3-5.5l0,0l0,0c-0.6-3.3-0.7-5.1-1.3-10.1
			c-0.2-2-0.2-2.7-0.5-4.8c-0.1-1.9-0.4-3.7-1-5.5c-0.4-1-0.9-2-1.5-2.9c-1-1.3-2.2-2.5-3.5-3.5c-1.9-1.7-2.9-3.4-4.9-6.7
			c-1.1-1.6-1.9-3.3-2.7-5.1c-0.8-1.8-1.2-3.7-1.3-5.6c-0.1-1.5,0.2-2.3,2.2-8.6c0.8-2.3,1.5-4.7,2.1-7.1c0.5-1.9,0.7-3.8,0.7-5.7
			c-0.1-2.4-0.6-2.5-0.8-5.3c-0.2-2.3,0-4.6,0.6-6.8c2.1-6.7,8.3-9.3,10.1-10.1c0.8-0.5,1.8-0.6,2.7-0.3c1.2,0.6,0.9,2.7,1,5.1
			c0.4,3.1,1.5,6.1,3.2,8.8c1.7,2.9,3.5,4.6,6.4,7.2c2.7,2.4,5.5,4.5,8.6,6.3c0.5,0.3,3.3,2.1,6.8,3.9c2.1,1.1,2.3,1.1,4.7,2.3
			c0.9,0.6,1.8,1,2.8,1.4c1.1,0.3,1.9,0.3,2.3,0.9c0.3,0.4,0.4,0.9,0.3,1.4c-0.6,3.5-1.6,7-2.9,10.3l-0.4,1.1
			c-0.6,1.3-1.2,2.5-2.1,3.7c-1.3,1.9-1.6,1.9-2.5,3.2c-0.9,1.3-1.5,2.8-2.1,4.3c-1,2.9-0.5,5-0.2,11.2c0.4,7.8-0.1,9.1,1.2,12.4
			c0.7,1.7,1.6,3.3,2.7,4.8c4.1,5.7,10,8.6,20.5,13.6c2.6,1.1,5.1,2.5,7.4,4c2.5,1.6,4.9,3.4,6.9,5.6c0.9,0.9,1.7,1.9,2.4,2.9
			c1.9,3.4,1.2,6.6,1.6,6.7c0.4,0.1,1.8-4.4,2.1-10.1c0.2-3.6,0.4-7.4-1-12c-2.1-6.4-4.7-6.8-6.1-13c-0.7-3.1,0-2.7-0.8-6.9
			c-0.7-4.3-2.2-8.5-4.5-12.2c-1.9-2.9-2.5-2.5-4.5-5.6c-1.8-2.9-3.1-6-4-9.3c-2-7.8,1.2-12.3,1.7-20.1c0.1-0.7,0.8-15.3-8.6-26.1
			c-5.6-6.5-12.8-9.4-20.2-12.2c-3.3-1.3-6.8-2.3-10.3-2.9C131.9,30.9,128.3,30.7,124.8,31z"/>
		<path class="st5" d="M158.7,136.1c-0.3-0.6-0.6-0.9-1.5-1.6c-2-1.8-3.8-3.8-5.4-5.9c-1.2-1.8-2.1-3.9-2.5-6
			c-0.5-2.3-0.8-4.6-0.8-6.9c-0.2-2.1-0.2-4.2-0.1-6.3c0.2-5.6,0.2-8.3,1.4-11.3s1.7-1.7,4.5-6.7c1.8-3.3,3.1-6.9,3.9-10.6
			c0,0,0,0,0-0.1c0,0,0.3-1.8,0.4-3c0.1-1.3-6.3-4.6-15.4-7.9c-4-2.2-7.7-5-11-8.3c-2.7-2.7-5.5-5.6-7.3-10.3
			c-1.2-3.2-1.8-6.6-1.6-10c-1.4,0.4-2.8,0.9-4.1,1.7c-1.4,0.8-5.9,3.3-7.7,8.3c-0.8,2.4-0.7,4.7-0.6,9.1c0.1,1.8,0.2,1.8,0.2,3.1
			c0.2,5.7-1.8,11-3.6,15.8c-0.8,2.1-1.2,4.3-1.3,6.5v0.2c0,4.8,4.4,10.8,4.4,10.8c5.2,6.8,8.1,8.1,9.6,12.4
			c0.5,1.4,0.8,2.9,1.1,4.3c0.2,1.4,0.2,1.8,0.4,5.1c0.2,2.7,0.3,4.1,0.5,6c0.3,2.7,0.5,3,0.7,4.7c0.1,1.9,0.1,3.7-0.2,5.6
			c-0.3,0.9-0.7,1.7-1.2,2.5c-1.2,1.8-2.3,1.9-2.5,2.9c-0.3,1.3,1.3,2.6,4.1,5c1.9,1.7,4,3,6.3,4c2.1,0.8,4,1.5,5.1,0.6l0.1-0.1
			c0.9-0.9,1-1.9,1.5-3.8c0.1-0.7,0.3-1.3,0.6-2c0.4-1,0.8-2.1,1.5-2.2c0.6,0,1.3,1,1.8,2.6c0.1,1,0.2,1.3,0.3,1.3
			c0.1,0,0.1-1.8,1.2-3.1c0.3-0.3,0.6-0.7,1-0.6c0.2,0,0.7,0.1,1.7,2.9c0.6,1.6,0.5,1.8,0.9,2.8c0.6,1.5,1,2.5,1.8,2.8
			c0.4,0.2,1.5,0.5,6.2-3.6c1.8-1.6,3.2-3,4.1-3.9C158.4,140.8,159.7,138.2,158.7,136.1z"/>
		<path class="st6" d="M186.3,256.2c-0.7-1-0.9-2.2-0.7-3.4c-0.4-2.8-0.7-6.2-0.7-6.2c-0.4-5-0.2-5.2,0-5.4c1.6-1.3,5.2,2.6,9,1.2
			c1.1-0.4,2.1-1.2,2.8-2.2c3-3.5,3.6-9.5,3.3-19.6c-0.1-7.6-0.7-15.1-2-22.6c-1.4-9-2.5-11.1-3.1-16.9c-0.1-1.3-0.7-6.1-2-12.4l0,0
			c-1-7.4-1-8.6-2-10.8c-2.2-5.2-6.1-8.1-8.4-9.9c-6.5-4.9-14.3-7.1-18.8-9.5c-1.1-0.6-2.1-1.2-3.1-1.9c-0.7-0.4-1.3-0.9-1.9-1.5
			c-0.2-0.2-0.3-0.3-0.5-0.5c0,0.1,0.1,0.2,0.1,0.3c0.1,0.2,0.2,0.4,0.2,0.6c0.1,0.6,0.2,1.2,0.3,1.8c-0.1,1.3-0.5,2.5-1,3.6
			c-0.1,0.4-0.3,0.7-0.5,1c-1.4,2.1-3.1,4-5.2,5.4l0,0c-3.1,2.3-4,1.7-5.5,3.3l0,0c-0.9,1,0.4,3.2,1.4,5.5c0.9,2.1,1.6,4.3,2.1,6.6
			c0.7,2.8,0.3,3,1,5c0.5,1.4,1.2,2.7,2.1,4c1.6,2.5,2.4,3.7,2.7,4c0.8,0.4,1.5,1.2,1.8,2.1c0,0,0,0.1,0,0.1
			c0.2,1.2-0.8,2.4-1.7,3.4c-1.2,1.5-2.6,2.8-4.3,3.9c-2,1.1-2.7,0.9-3,0.8c-0.7-0.3-1.2-0.8-1.5-1.5c0,0-0.5-1.8-0.8-2.9
			c-0.1-0.3-0.2-0.5-0.3-0.8c-0.3-0.8-0.4-1.6-0.5-2.4c-0.2-1.5-0.7-1.6-1.8-4.9c-0.5-1.4-0.4-1.4-1-3c-0.5-1.3-0.7-1.7-1.1-2.9
			c-1.4-3.7-1.6-5.1-2.1-5.1s-0.8,1.2-1.2,3.2c-0.4,1.7-0.7,3.5-1,5.3c-0.5,3.3-0.6,3.4-0.7,4.5c-0.1,0.8-0.1,1.4-0.1,1.5
			c-0.2,1-0.4,2.1-0.7,3.1c-0.2,1.7,0.3,2,0.4,5.2c0,1.3-0.1,1.4-0.2,1.5c-0.8,0.7-2.7-1.8-7.3-4.3c-1.4-0.7-2.6-1.8-3.3-3.3
			c0-0.1-0.1-0.2-0.1-0.3c-0.6-2.9,3.7-4.9,4.7-9.3c0.2-0.8,0-0.6,0.4-3.3c0.3-2.4,0.7-4.1,0.8-4.9c0.4-2.1,1-5.3,1.9-10.7
			c-2.4-0.5-4.6-1.4-6.7-2.6c-0.1-0.1-1.2-0.8-3.3-2.4c0,0-4-3-4.6-4.9c-0.1-0.2-0.1-0.5-0.1-0.8c0.1-0.6,0.4-1.2,0.9-1.6
			c0,0-1.2,1-2.2,1.8c-1.1,0.8-2.3,1.4-3.6,1.8c-3.8,1.5-7.5,3.2-11.1,5.1c-1.7,0.9-3.3,1.8-4.8,2.8l-0.4,0.2
			c-1.8,1.1-3.5,2.5-5,4.1c-1.5,1.7-2.7,3.8-3.4,6c-1.7,5.2-2.9,10.5-3.4,15.9c-2.1,11.1-1.7,10.8-4,23.5c-2,10.9-3.1,15-3.3,22.4
			c-0.2,4.1,0.2,8.1,1,12.1c0.9,3.2,2,6.3,3.3,9.3c3.4,8.9,4.3,10.3,5.7,10.6c0.9,0.2,2.6-0.7,5.9-2.6c2.3-1.3,3.7-2.2,6.3-3.6
			c5-2.7,5.6-2.7,6-2.4c0.9,0.6,0.6,2.4,0,6c-0.4,2.3-0.6,3.4-0.8,4.1c-1.5,6.8-2.3,10.1-2.7,10.8v0.1c-0.1,0.2-0.1,0.4-0.2,0.6
			c0,0.1,0,0.3,0,0.4c0.3,1.6,3.1,2.4,6.4,3.1c3.7,0.8,7.4,1.2,11.1,1.3c6.4,0.2,10.3,0.1,13.7,0.3c2.1,0.2,4.1,0.2,6.2,0
			c9.3-0.7,24.7-4.5,24.7-4.5c12.5-3,5.4-1.7,11.2-3.1c0,0,9-2.1,10.2-4.9c0.2-0.5,0.3-1,0.3-1.5c0-0.5-0.1-1.1-0.3-1.6
			C186.3,256.5,186.3,256.4,186.3,256.2z"/>
		<path class="st5" d="M156,175.8c-1.9-2.5-2.2-2.5-3.1-3.8c-1.1-1.8-1.8-3.7-2.3-5.7c-0.5-1.9-0.2-1.7-0.8-3.6
			c-0.5-1.9-0.9-2.4-1.7-4.9c-0.3-1-0.5-1.7-0.8-2.9c-0.9-3.5-0.7-3.8-1.2-5c-1-2.3-1.9-1.8-2.6-4c-0.8-2.2-0.6-4-1.3-4.1
			c-0.7-0.1-1.3,1-1.4,1.2c-0.8,1.3-0.5,2.5-0.8,2.5c-0.5,0.1-1.3-4-2.1-3.8c-0.4,0.1-0.4,1.1-1.2,3.1c-0.2,0.4-0.3,0.7-1.1,2.3
			c-2.1,4.1-2.2,4.1-2.6,5.2c-0.6,1.4-0.3,1.7-1,6c-0.5,3-0.9,5.7-1.7,9.2c-0.9,4.4-1.2,5.1-1.6,5.7c-0.2,0.2-0.3,0.5-0.5,0.7
			c-0.1,0.3-0.3,0.6-0.4,0.9c-0.5,1-1.3,1.9-2.3,2.6v0.1c0,0.3,0,0.7,0.1,1c1.5,2.3,3.5,4.2,5.9,5.6c1,0.6,2.1,1.1,3.1,1.6
			c0-0.2,0-0.4,0-0.6c-0.1-0.4-0.1-0.9-0.1-1.3c0.1-0.9,0.3-1.8,0.8-2.6c0.1-1,0.3-2.3,0.6-3.7c0.5-2.7,0.8-2.7,1.2-5.4
			c0.3-1.7,0.5-3.6,1.1-6.2c0.7-3,1.1-3.2,1.2-3.2c1-0.1,2.2,3.3,3.1,5.8c1.1,3.1,0.9,3.4,2.1,6.7c1.4,3.8,1.7,3.4,2.1,5.4
			c0.3,1.3,0.4,2.5,0.6,3.3v0.1c0.1,0.5,0.4,0.9,0.8,1.1c0.6,0.3,1.3,0.3,2,0.2c1.2-0.2,2-0.8,3.4-2.1c2.7-2.4,4-3.7,3.9-4.7
			C157.8,177.8,157.4,177.7,156,175.8z"/>
		<path class="st7" d="M121.1,112.2c0.3,0.4,0.7,0.8,1.1,1.2c1.4,1.2,3.3,2.2,11,2.1c5.8,0,7.7-0.6,8.7-1c1.6-0.5,3-1.3,4.3-2.4
			c1.5-1.2,2.1-2.3,2.2-2.2c0.1,0.1-1.9,6.9-7.1,9.5c-3,1.5-5.7,1-11.1,0.2c-3.6-0.6-5-1.5-6-2.3C122.7,115.7,121.6,114,121.1,112.2
			z"/>
		<path class="st8" d="M136,144.2c0.8-1.8,2.4-4.4,2.9-4.2c0.2,0.1,0.2,0.5,0,5.5v0.2c0,0.9-0.1,2.8-0.2,4.4
			c-0.2,2.9-0.4,2.7-0.5,4.5c-0.1,1.2,0,2.4,0.1,3.6c0.3,2.4-0.8,6.2-2,13c-0.7,4.1-1,6.2-1.1,6.9c-0.2,2.6-0.9,5.2-2,7.5
			c0.4,0.2,0.8,0.3,1.2,0.6c0.4,0.3,0.8,0.6,1.1,0.9c0-0.3,0.2-1.2,0.2-1.9c0-0.2,0-0.4,0-0.4c0-0.3,0-0.5,0-0.8
			c0-0.9,0.1-1.7,0.3-2.6c0.2-1.7,0.5-3.3,0.9-4.9c0.3-1.2,0.4-1.2,0.6-2.3c0.2-0.8,0.2-1.1,0.5-3.1c0.2-1.5,0.4-2.5,0.6-3.6
			c0.1-0.7,0.3-1.5,0.5-2.2c0.4-1,0.6-1.1,0.5-1.6c0-0.8-0.5-1.2-0.4-2.2c0-0.1,0-0.3,0.1-0.4c0.3-2.3,0.4-4.5,0.4-6.8
			c0.1-2.9,0-5.2-0.1-7.2c-0.2-7-0.4-7.3-0.6-7.4c-1.4-0.4-5.6,10.8-5.6,10.8l0.1-0.1C134.3,148.6,135.2,146,136,144.2z"/>
		<path class="st8" d="M145.3,146.6c1,2.1,1.7,3.8,1.7,3.8S146.3,148.6,145.3,146.6z"/>
		<path class="st8" d="M154.3,183.5c-0.6,0.2-1.1,0.2-1.7,0c-1.2-0.5-2.1-1.5-2.4-2.8l-0.4-0.6c0,0-7.3-10.6-8.2-19.2
			c-0.1-0.9-0.1-1.7-0.1-1.7c0.1-1.1,0-2.1-0.1-3.2c-0.5-4.9-1.4-7.9-1.1-12.8c0.1-3,0.5-3.2,0.7-3.2c0.8-0.2,2.2,2,3.4,4.5
			c-1.3-2.6-2.8-5.1-3.7-4.8c-0.4,0.1-0.5,0.7-0.6,1.2c-0.9,5.4-0.5,9.4-0.6,13.4c-0.1,3.3-0.6,4.9,0.1,7.8c0.1,0.6,0.5,1.4,1,3
			c1.4,3.6,1.9,4.2,2.8,7c0.4,1.1,0.5,1.5,0.9,2.8c0.6,1.6,1.3,3.2,1.3,3.2c0.5,0.7,0.8,1.5,1,2.3c0.2,0.8,0.1,1.3,0.3,2.4
			c0.1,0.6,0.3,1.2,0.5,1.8c0.4,0.7,1,1.2,1.8,1.5c0.3,0.1,0.7,0.1,1,0.1c0.8-0.4,1.7-0.8,2.5-1.1c0.2-0.1,0.4-0.3,0.6-0.4
			C153.7,184.3,154,183.9,154.3,183.5z"/>
		<path class="st9" d="M139.4,177.6c-0.6,0.1-1.2,0.3-1.7,0.4c-0.1,0-0.3,0.1-0.4,0.2c-0.1,0.1-0.1,0.3-0.2,0.4
			c-0.9,3.9-1.4,7.9-1.5,11.9"/>
		<path class="st9" d="M142.1,175.5c2,1.1,3.5,3,4.2,5.2l2.7,6.7"/>
		<path class="st9" d="M159.4,177.1c-1.7,1.9-3,4.1-4.6,6.2c-2.2,2.8-4.9,5.1-7.9,6.9"/>
		<path class="st9" d="M128.4,169.4c0.3,1.8-0.6,3.5-1.5,5c-0.4,0.6-0.8,1.2-1.2,1.7c-0.3,0.4-0.6,0.9-0.8,1.4
			c-0.1,0.3-0.2,1.3,2.1,3.4c1,1,2.1,1.8,3.3,2.5c2.2,1.4,4.2,2.5,6,3.5"/>
		<path class="st9" d="M159.8,178.8c-3-2.3-5.3-5.3-6.6-8.8"/>
		<path class="st10" d="M133.7,184.8c-0.5-0.3-0.6-0.3-1-0.5s-0.7-0.5-0.7-0.5c0.5,0.4,1.1,0.8,1.5,1.3c0.3,0.3,0.6,0.5,0.8,0.9
			c0.7,1.2-0.5,3.1-0.7,3.5c-5.3,9-9.3,18.8-14.1,28.1c-3,5.7-2.8,6.3-5.9,11.8c-5.2,9.3-8.2,12.3-9.4,13.4
			c-3.2,2.9-3.6,2.3-7.5,5.9c-1.7,1.5-3.6,2.8-5.7,3.8c-1,0.4-2.4,1-3.6,0.5c-0.6-0.3-1-0.8-1-0.7c0.3,0.8,1,1.3,1.7,1.6
			c0.6,0.2,1.3,0.2,1.9,0.1c1.6-0.3,3.1-1,4.4-1.9c1.6-1.1,4-2.6,5.5-3.5c3.4-1.9,3.8-1.4,5.9-3c1-0.7,1.9-1.6,2.7-2.5
			c3.8-4.3,6.8-9.2,9-14.5c4.6-13.7,11.6-29.6,13.6-33.1c1-1.8,1.6-3,2.8-5.5c0.1-0.2,0.2-0.5,0.4-0.9c0.2-0.6,0.4-1.3,0.6-2
			c0,0,0.1-0.5,0.2-0.9c0-0.1,0-0.2,0.1-0.2c0-0.1,0-0.1,0.1-0.2c0,0,0,0,0-0.1c0-0.1-0.2-0.2-0.3-0.3c-0.2-0.1-0.4-0.2-0.6-0.4
			C134.1,185,134.2,185,133.7,184.8"/>
		<path class="st10" d="M188.4,242.8c-1.2-0.4-2.4-1-3.5-1.7c-2.6-1.6-10.1-10.2-19-23c-8.8-16.3-17.1-31.9-16.7-32.1
			c0.2,0.1,0.4,0.1,0.7,0.1c0.4,0,0.8-0.1,1.1-0.3c0.6-0.2,0.9-0.4,0.9-0.4c-0.3,0.2-0.6,0.4-0.9,0.5c-0.7,0.4-0.9,0.4-1,0.6
			c-0.1,0.2,0.1,0.9,0.2,1c22.4,34.6,23,35.2,24,36.6c0.6,0.8,3.8,4.9,8,10.2c0,0.1,6,7.7,9.9,8c0.9,0.1,1.8-0.1,2.6-0.4
			c0.9-0.4,1.6-1,2.1-1.8c0,0-1.5,2.8-4.1,3.4C191.3,243.8,190.1,243.4,188.4,242.8z"/>
		<path class="st10" d="M104.4,203.3c-0.8,0.7-1.6,1.4-2.5,2.1c-1,1-1.8,1.9-2.5,2.6c-1.4,1.5-2.2,2.4-2.9,3.3
			c-0.3,0.4-0.5,0.7-0.6,0.8c-0.5,0.7-0.9,1.3-1.5,2.1c-2.9,4.1-5.4,7-5.3,7c1-1,1.9-2,2.7-3c3.2-3.8,3.9-5,6.2-7.6
			c1.7-1.9,1.6-1.5,3.7-3.7c2.2-2.4,4.3-5,6.2-7.6C107,200.6,105.8,202,104.4,203.3z"/>
		<path class="st10" d="M108,171.2L108,171.2c0,0.4,0,2.2-0.2,5.6c-0.7,6.6-1.7,13.1-3,19.6c-0.4,1.9-0.8,3.9-1.4,5.8
			c-0.3,1-0.6,2-1,2.9c-0.1,0.3-0.4,0.8-0.3,0.8c0.4-0.6,0.8-1.1,1.3-1.6c0.6-0.5,0.9-0.5,1-1c0.1-0.4,0.2-0.7,0.3-1.1
			c0.1-0.7,0.2-0.8,0.2-1.1c0.7-3.8,1.1-8.4,1.1-8.4c0.1-3.5,0.3-1.8,1-10.6C107.7,176.6,108,171.2,108,171.2z"/>
		<path class="st10" d="M191.3,208.6c0,0-4.3-3.5-9.8-8.8c-2.1-2.1-3.3-3.2-6.4-6.2c-1.9-1.8-3.2-3-3.2-3c0,0,2.1,2.1,5.3,4.6
			c3.2,2.5,2.9,2.2,4.7,3.7c1.9,1.7,3.7,3.6,5.4,5.6c0.3,0.3,0.9,1,1.8,2.1C189.8,207.3,190.5,208,191.3,208.6z"/>
		<path class="st10" d="M181.6,198.9c-0.9-0.3-1.6-0.8-2.1-1.6c-0.1-0.2-0.2-0.5-0.2-0.5c-0.2-0.5-0.3-1.1-0.3-1.7
			c0-1.4-0.3-2.8-0.3-4.1c0-2.1-0.3-4.1-0.4-6.1c-0.5-6.9-1.5-14.8-1.4-14.8c0.1,0,1,7.9,2.7,18.2
			C180.4,192.7,181.1,196.4,181.6,198.9z"/>
		<path class="st11" d="M116.6,405.1c12.6-0.1,25.3,0.1,37.9,0.3c0.4-16.8,0.8-33.7,1.1-50.7c0.1-7.1,0.2-14.1,0.3-21.1
			c1.2,7.3,2.3,14.6,3.5,21.9c2.6,16.8,5.1,33.6,7.5,50.2c7.1,0.2,14.1,0.3,21.2,0.4l10.5-1.2c0.3-20.7,0.8-37.1,1.3-48.4
			c0,0,1.2-27.7,0.3-51c0-1.2-0.1-3.2-0.3-5.7c-0.6-7.5-1.9-15-4-22.3c-1.2-4.1-2.6-8.2-4.3-12.1c-0.2-0.2-0.3-0.5-0.5-0.8
			c-0.3-0.8-0.7-1.6-1-2.4L190,262c-0.4-1.1-0.9-2.1-1.6-2.9c-0.3-0.4-0.3-0.3-1-1c-0.2-0.3-0.5-0.4-0.8-0.7c0,0-0.1-0.1-0.2-0.1
			c-0.1,0-0.1,0.2-0.1,0.3c0,0.2-0.1,0.4-0.2,0.6c-0.3,0.6-0.8,1.2-1.3,1.7c-10.5,8-31.6,10.5-31.6,10.5s-39.6,4.6-47.9-1.9
			l-0.2-0.1c-0.7-0.6-1.5-1.2-2.4-1.5c-0.2,0.8-0.6,2.1-1,3.6c-3.8,14.5-3.5,27.4-3.2,37c0.1,1.8,0.1,3.1,0.2,3.6
			c1.1,21,8.2,47.4,9.7,53.3C112.1,377.6,114.8,391.3,116.6,405.1z"/>
		<path class="st12" d="M141.8,207.1c0,1.1,0,3.6,0.1,7.2C141.9,209.9,141.9,208,141.8,207.1L141.8,207.1z"/>
		<path class="st12" d="M141.9,214.3c0,2.3,0.1,5.6,0.1,5.6S141.9,216.6,141.9,214.3z"/>
		<path class="st13" d="M141.8,205.5c-0.8,0-1-2.5-3.4-5.9c-0.7-0.9-1.4-1.8-2.2-2.6c-2.2-2.4-3.2-3.2-5.3-5.3
			c-5.2-5.2-5.7-6.9-5.9-7.6c-0.3-1.2-0.3-2.5-0.3-3.8c0.1-0.8,0.2-1.7,0.4-2.5c-0.6,1.4-0.9,2.9-0.9,4.5c0.3,4.1,3.7,7.2,6.9,10.3
			c4.4,4.2,9.8,8.8,10.7,15.2c0.9-6.9,6.9-11.7,12.4-15c2.5-1.5,7.1-5.6,6.9-9.1c-0.2-1.7-0.8-3.4-1.9-4.8c-0.2-0.2-0.4-0.5-0.6-0.7
			c-0.1-0.1-0.2-0.2-0.3-0.3c0.3,0.3,0.7,0.6,1,0.9c0.5,0.6,0.8,1.3,0.9,2.1c0.4,1.1,0.6,2.2,0.6,3.3c-0.1,1.4-0.6,2.7-1.4,3.8
			c-0.5,0.7-1,1.3-1.7,1.8c-1.8,1.5-3.7,2.9-5.7,4.2c-1.9,1.2-3.7,2.6-5.3,4.1c-0.8,0.7-1.5,1.5-2.1,2.3
			C142.5,203.4,142.6,205.5,141.8,205.5z"/>
		<path class="st13" d="M148.4,184.4c-4.1,1.6-8.7,1.4-12.7-0.4c0,0,0,0.1,0,0.1c1,0.4,2,0.8,3,1c1.2,0.3,2.5,0.5,3.7,0.5
			c2.1,0.1,4.1-0.3,6.1-1L148.4,184.4z"/>
		<path class="st14" d="M141.8,219.9c-0.2,0.2-0.1,0.5-0.1,1c0.1,0.8,0.1,1.2,0,1.4c-0.1,0.2-0.5,0.1-1,0.1c-0.6-0.1-0.9-0.2-1.1,0
			c-0.1,0.1-0.1,0.2-0.1,0.3c0.1,0.1,0.3,0.2,0.8,0.2c1,0,1.2,0,1.4,0.1c0.1,0.1,0.1,0.4,0,1.2c-0.2,1.5-0.3,2-0.1,2.1
			c0.1,0.1,0.3,0.1,0.5,0c0.3-0.2,0.2-0.6,0.2-1.8c0-1.2,0-1.4,0.2-1.5c0.2-0.1,0.5-0.1,1.2-0.1c0.7,0,0.8,0,1-0.1
			c0.1-0.1,0.1-0.3,0.1-0.4c-0.1-0.1-0.4-0.1-1.2,0c-0.8,0.1-1,0.1-1.1,0c-0.1-0.1-0.2-0.6-0.2-1.4c0-0.6,0-1-0.1-1
			C142.2,219.8,142,219.8,141.8,219.9C141.9,219.9,141.9,219.9,141.8,219.9z"/>
	</g>
</g>
<rect y="0" class="st15" width="274.9" height="275.1"/>
<rect x="-116.4" y="19.4" class="st16" width="34.1" height="30.5"/>
<rect x="-116.4" y="65.1" class="st16" width="34.1" height="30.5"/>
</svg>
