<svg xmlns="http://www.w3.org/2000/svg" width="376" height="565.971" viewBox="0 0 376 565.971">
  <g id="Componente_2_1" data-name="Componente 2 – 1" transform="translate(0.5 0.5)">
    <path id="Intersección_2" data-name="Intersección 2" d="M1010.148-3632.059c-13.242-6.566-25.2-15.773-34.468-29.543-29.969-44.524-71.161-89.127-123.289-96.3q-6.671-.917-12.921-1.356H816.235c-108.5,8.5-104.457,139.938-96.016,195.686,5.683,37.537-9.083,58.754-30.974,87.939-17.925,23.9-36.771,35.235-48.737,72.49a116.984,116.984,0,0,0-5.361,28.059v15.413a116.9,116.9,0,0,0,27.755,68.192c20.684,24.191,46.95,42.38,75.551,52.319,34.375,11.946,70.509,11.854,106.756,11.762,20.789-.053,41.616-.1,62.168,2.114a283.009,283.009,0,0,1,71.034,17.223c10.7,4.109,21.2,8.871,31.737,13.507Z" transform="translate(-635.147 3759.255)" fill="#fff3d0" stroke="rgba(0,0,0,0)" stroke-miterlimit="10" stroke-width="1"/>
  </g>
</svg>
